<?xml version="1.0" encoding="UTF-8" standalone="no"?>
<!DOCTYPE svg PUBLIC "-//W3C//DTD SVG 1.1//EN" "http://www.w3.org/Graphics/SVG/1.1/DTD/svg11.dtd">
<svg width="100%" height="100%" viewBox="0 0 600 600" version="1.1" xmlns="http://www.w3.org/2000/svg" xmlns:xlink="http://www.w3.org/1999/xlink" xml:space="preserve" xmlns:serif="http://www.serif.com/" style="fill-rule:evenodd;clip-rule:evenodd;stroke-linejoin:round;stroke-miterlimit:2;">
    <g id="wPEPE-Logo" serif:id="wPEPE Logo">
        <g id="Background" transform="matrix(1.27932,0,0,1.67598,-38.3795,-120.67)">
            <rect x="30" y="72" width="469" height="358" style="fill:rgb(75,149,65);"/>
        </g>
        <g id="Wrapped-PEPE" serif:id="Wrapped PEPE" transform="matrix(0.922631,0,0,0.922631,23.3031,23.2224)">
            <g id="Fill" transform="matrix(1.08386,0,0,1.08386,-25.2572,-25.1697)">
                <path d="M37.277,483.639C36.482,481.967 29.279,463.136 29.045,461.097C25.59,431.055 24.602,440.666 27.86,418.188C27.989,417.296 29.777,389.771 30.053,387.31C31.328,375.927 33.214,364.11 33.811,362.98C33.509,361.678 36.125,337.1 41.419,317.996C43.405,310.829 43.233,300.63 51.437,274.292C57.118,256.055 72.552,227.175 73.843,224.788C93.286,188.827 116.347,145.014 128.921,127.584C144.185,106.426 134.901,126.393 166.087,80.126C167.418,78.151 187.344,50.253 189.582,48.659C191.211,47.499 210.334,30.678 246.191,34.483C274.622,37.501 279.743,37.337 291.44,43.953C292.331,44.457 309.362,58.055 312.808,61.678C315.474,59.595 327.555,51.629 329.594,49.9C336.125,44.363 341.256,39.308 355.245,38.49C385.138,36.741 378.407,37.766 386.884,39.253C387.302,39.326 401.909,46.639 403.251,47.51C422.235,59.838 420.111,62.134 433.406,80.511C442.396,92.937 445.577,99.92 447.231,104.448C447.744,105.854 448.11,110.035 448.434,111.081C448.614,111.66 456.459,116.261 456.994,116.626C465.361,122.323 481.308,138.632 482.383,140.352C483.767,142.567 485.222,147.102 484.854,149.498C506.268,161.905 505.321,159.916 507.244,161.251C510.845,163.75 512.512,168.224 511.424,172.47C508.798,182.721 508.613,213.309 507.631,219.472C506.707,225.274 505.006,230.315 501.89,234.728C497.443,241.026 494.93,242.118 492.416,249.438C492.323,249.71 498.9,254.47 503.306,262.793C508.459,272.524 520.52,288.523 521.657,293.393C523.356,300.665 521.629,305.946 517.876,311.146C515.14,314.937 510.301,318.606 506.509,325.588C505.685,327.105 502.987,331.106 502.859,332.029C504.671,335.395 508.972,343.925 508.972,343.925L504.471,353.6C496.243,366.711 495.06,368.459 494.824,381.524C494.619,392.859 492.662,392.733 482.967,405.983C481.919,407.415 478.926,412.719 479.46,414.387C482.293,423.239 501.571,432.734 508.131,437.872C548.905,469.809 547.106,480.962 550.687,485.329C556.66,492.612 560.358,498.54 563.919,507.295C567.118,512.307 570.337,518.134 572.142,523.195C574.359,529.412 574.393,535.004 572.961,538.756C571.634,542.229 556.32,556.749 516.671,565.02C495.367,569.465 438.85,563.48 427.886,558.797C425.182,557.642 418.094,554.756 397.008,538.863C396.62,538.57 387.947,533.731 385.377,529.066C383.078,524.893 383.603,518.537 380.618,519.651C374.99,521.753 367.155,536.823 359.068,537.413C346.623,543.479 327.458,545.358 326.136,544.95C324.528,545.904 243.442,547.324 237.789,548.122C223.164,550.186 223.197,549.45 208.452,549.54C207.2,549.548 195.864,549.43 191.988,549.639C187.557,549.877 175.129,548.017 172.827,547.995C172.003,547.988 145.265,547.408 113.667,538.081C103.992,535.226 67.488,515.973 67.239,515.81C44.172,500.73 39.027,487.323 37.277,483.639ZM459,442L432,473L412,490L427,501L444,477L459,468L470,446L459,442Z" style="fill:rgb(75,149,65);"/>
            </g>
            <g id="Lips" transform="matrix(1.08386,0,0,1.08386,-25.2572,-25.1697)">
                <path d="M205.981,331.631C197.721,331.603 179.043,306.547 186.296,300.889C188.907,298.852 189.997,295.455 193.257,296.037C248.826,305.958 311.999,326.375 379.105,329.85C418.752,331.903 444.503,334.551 463.169,331.871C475.829,330.053 485.458,324.771 491.727,318.924C494.82,316.039 497.799,313.039 500.458,309.404C504.594,299.626 509.32,289.85 509.026,286.853C508.703,283.557 510.117,281.619 513.413,281.296C516.708,280.973 518.646,282.387 518.969,285.683C519.556,291.666 523.528,294.919 524.003,297.525C524.694,301.317 522.718,303.168 520.757,308.095C518.284,314.308 508.967,323.748 507.947,324.994C505.85,327.555 505.678,328.24 503.244,331.258C504.278,333.703 505.345,335.768 506.05,337.781C507.027,340.572 506.743,343.289 507.052,346.346C507.453,350.308 490.678,372.522 488.115,373.826C469.025,383.545 469.178,383.929 445.59,383.728C435.16,383.638 357.695,384.644 356.672,384.576C340.651,383.516 335.755,378.811 310.71,377.572C291.592,376.625 212.573,331.653 205.981,331.631Z" style="fill:rgb(157,42,19);"/>
            </g>
            <path id="Eyes" d="M323,227C323.3,225.4 322.8,226.6 323.7,225.6C328.2,219.8 331,211.8 331.5,204.4C332.8,181.7 326,183.4 324.8,179.7C331.5,179.8 337.4,178.7 344.3,178.7C345.9,178.7 347.1,178.4 349,178.4C351,178.4 352.3,178.7 354,178.8C358,179 357.1,178.6 361.1,181.9C364.1,184.4 368.9,189.6 370.2,193.2L379,215.3C381.8,222.2 376.4,220.7 375.2,220.8C372,221.2 370,222.5 367.3,223.3C365.1,224 362.5,225.4 360,226.3C352.9,228.9 340.1,229.1 331.9,228.4L323,227ZM483,224.8C483.3,223.6 484.9,222.1 485.8,220.7C486.7,219.2 487.3,217.5 488.1,215.9C491.7,208.6 490.5,199.6 487.6,192.1L482.8,184.4C482.1,183.6 482.4,184.3 482,183.3C483.8,182.1 491.4,185.5 493,186.3C494.8,187.2 496.1,188.2 497.6,189.1C500.1,190.7 509.7,195.3 512.3,196.3C516,197.7 521.9,198.6 520.2,202.9C519.7,204.2 517.6,205.5 516.7,206.5C512.8,211 511,213.9 505.7,217.7C503,219.6 499.3,221.5 495.9,222.6C494.3,223.3 484.7,225.1 483,224.8ZM262.3,180.4C261.9,182.1 261.4,181.1 258.8,184.5C255.9,188.3 253.1,192 251.8,196.8C251.5,197.8 251.6,199.1 251,199.9L250.5,199.9C249.2,199.5 248.6,197.1 244.5,195.3C241.8,194.1 239.6,193.2 236.6,191.9C233.7,190.7 231.2,190.3 228.2,189L222.2,186.6C220.9,186.2 220.8,186.5 220.5,185.5C222,184.4 237.6,182.3 240.6,182.2L261.1,180.2L261.4,180.2C262.3,180.2 261.8,180 262.3,180.4ZM310.6,191.9C312.9,192.9 314.5,192.3 316.8,195.3C319.1,198.3 317.3,206.1 312.4,208.4C309.2,209.9 307.8,209.6 303.9,209.6C298.2,209.6 293.2,198.2 303.3,193.5C304.8,192.7 308.6,191 310.6,191.9ZM422.9,223C421.5,223.3 418.1,221.8 416.5,221.4C407.5,219.2 408.8,220 409.6,213.2C410,210 417.3,200.1 419.2,198.2C420.1,197.3 426.4,190.4 427.3,190.2C427.5,191 426.5,192.2 426,193.2C425.3,194.6 425.3,195.7 424.8,197.1C424,199.8 423.1,199.5 422.4,204.9C422,208.3 421.2,210.1 421.3,214C421.6,217.2 423,221 422.9,223ZM469.7,196.3C471.9,197.1 475,195.7 477.7,199.3C478.3,200.2 478.3,201 478.4,202.5C478.5,205.1 478.7,207.3 477.2,208.9C475.9,210.4 475,211.5 472.1,211.5C469.5,211.5 466.2,211.9 464.6,208C461.8,201.4 466.4,195.1 469.7,196.3ZM276.9,184.4C279.2,185.3 281.3,186.8 280.5,190C280.2,191.2 277.9,193.8 274.2,193.3C272.4,193 270.1,190.3 271.1,187.9C271.7,186.4 271.9,186.1 273.1,185.2C274.3,184.3 275.4,183.9 276.9,184.4ZM280.5,201C285.3,203 281.6,212 276.2,208.9C270.7,205.6 276.2,199.3 280.5,201ZM443.2,189.3C449.8,191.1 446.3,199.2 441.6,198.2C439.6,197.8 438,195.5 438.8,192.8C439.3,190.9 441.1,188.7 443.2,189.3ZM445.9,208.9C447.7,209.8 447.8,212.7 446.8,214.3C444.6,218 438.1,215.2 440.2,210.4C440.6,209.4 441,208.9 442.1,208.7C443.3,208.5 445,208.5 445.9,208.9Z" style="fill:white;"/>
            <path id="Outline" d="M174.6,269C173.2,265.4 175.9,264.5 178,263.3C179.5,262.5 183.2,261.3 185.3,261.1C188.1,260.8 190.8,260.2 193.7,260C197.8,259.8 202.2,258.7 201.9,262.8C201.8,264.8 201.9,265 197.4,265.6C192.2,266.3 186.6,266 181.4,268.5C179.1,269.6 176.6,271.5 174.6,269ZM480.4,461.1C480.4,458.2 478.3,457.7 475.1,457C473.7,459.1 469.2,465.9 467.6,467.6L458.4,476.8C456.4,479.2 454.6,480.8 452.3,483.1C451.7,483.7 451.4,484.1 450.8,484.6C445.7,488.7 441.2,494.2 436.6,497.9C435.4,498.9 434.5,499.7 433.2,500.7L428.1,504.8C427.2,505.5 427,505.5 426.4,506.4C426.8,507 427.8,508.3 428.4,508.8L433,513.4C434.5,514.9 435.2,514.4 436.2,514.4C437.5,508.9 437,510.4 439.7,505.8C442.9,500.4 445.6,496.3 450,491.8C456.8,485 456,487.4 461,484.8L464.9,482.5C467.2,481.2 468.6,478.2 470.5,476C473.1,472.9 480.4,465.6 480.4,461.1ZM424.3,479.8C428.2,478.9 432.8,475.9 435.9,473.6C438.2,471.9 440.4,470.3 442.8,468.6L449.5,463.5C450.5,462.6 451.6,461.7 452.8,460.9C456.3,458.3 459.5,455.2 464.7,455.1C470.8,455.1 468.5,455.9 465.7,460.1C463.8,463 462.6,464.7 460.5,466.7C459.5,467.6 458.6,468.8 457.6,469.7L454.5,472.5C453.4,473.7 452.6,474.2 451.5,475.4C447.9,479.4 450.7,476.9 445.4,481.1C443,483 439.6,487.1 438.1,488.6C437.6,489 437.1,489.3 436.4,489.9C433.4,492.6 430.2,495.7 426.8,498.1C424.3,499.8 424.9,500.3 423.6,500.7C421.5,497.9 422.6,489.5 421.4,485.3C419.5,479.3 418.1,481.3 424.3,479.8ZM482.2,472.3C481.4,471.3 481.9,471.6 482.4,471C483.6,469.8 485.6,465.1 485.9,463.5C486.3,461 486.7,462.5 488.2,461.4C489,460.8 489.4,459.1 489.1,458.1C488.7,456.9 482.5,453.2 481.1,452.7C475.9,450.5 463.7,448.1 458.4,450.6C457,451.2 456.5,451.1 455.2,451.9L449.9,455.5C447.6,457.1 444,460.9 440.1,463.4L437.5,465.3C433.9,467.5 430.7,470.6 426.9,472.5C425.8,473 424.9,473.3 423.8,473.8C418.9,476.3 409.1,475.1 404.4,473.7C403,473.3 402.6,472.8 401.2,472.4C398.7,471.7 397.7,470.2 396.8,467.9C396.4,467 395.8,465.9 395.7,464.8C395.5,463.5 395.5,461.8 395.8,460.6C396.1,459.2 396.7,458.5 397.1,457.4C398.2,453.9 398.6,454.8 401.4,452.9L407.1,449.7C409,449 410.3,450.5 411.9,451.2L414.7,452.8C416.1,453.6 417.3,454.4 418.3,455.7C419.1,456.7 419.5,457 420.2,458.3C422.4,462 414.2,466.3 413.1,467.9C411.5,470.3 413.9,473.2 416.7,472.1C417.1,471.9 418.8,470.6 419.3,470.2L421.7,468.1C424,465.6 426.3,462.8 426.3,459.2C426.3,457.5 425.2,455.5 424.3,454.2L421.3,450.6C420.5,449.6 420.9,450.3 420,449.6L413.4,445.3C414.2,444.2 414.9,444.1 416,443.3C417.2,442.4 418.2,440.7 419.4,439.9C421.8,438.3 420.9,438.6 422.8,436.5C423.8,435.4 424.1,435.2 425.3,434.3C427,433.1 428.7,431.6 429.9,430C431.4,428.1 435.4,425.5 437.5,424C440.5,421.8 442.6,420.8 445.6,418.2C447.2,416.8 449.7,416.2 451.7,415.4C459.5,412.5 459,410.2 469.5,410.1C472.3,410.1 474.2,410.8 476.3,412.7C477.3,413.6 477.9,413.7 478.8,414.6C481.6,417.4 485.5,420.8 488.8,423C490.9,424.4 491.5,426.3 492.6,428.4C493.3,429.7 494.9,431.3 496.4,433.5L498.5,435.9C499.7,437.2 501.5,437.7 502.9,438.6C505,439.9 506,439.9 507.4,440.9C511.1,443.5 515.3,444.8 518.9,447.4L532.2,456.9C534,458.1 535.9,459.5 537.2,461C539.4,463.4 541.9,465.3 544.2,467.6C546.5,469.9 548.1,472.9 550.2,475.2C552.2,477.4 554.8,482.5 557.2,484.2C558.9,485.4 562.5,490.1 562.5,490.1C564.7,492.7 564.3,492.6 565.5,494.2C566.2,495.1 565.8,494.4 566.5,495.2C568.3,497.4 572.9,506.9 574.2,509.7C577.4,516.6 577.6,514.6 579.1,517C580.6,519.4 581.8,522.3 583.4,524.8L591,541.5C592.6,545 592.1,544.3 592.7,547.8C593.3,551.5 595.6,552.5 594.3,557.8C593.9,559.3 593.6,558.7 592.6,560.2C589.7,564.3 589.6,562.6 587.1,564.7C585.9,565.7 586.6,565.8 585.2,566.7L581.2,568.6C579.1,569.5 578,571.2 576.5,571.8C576.5,571.8 568.5,576.6 565.7,577C562.9,577.4 558.1,579.6 555.8,580.2C554.6,580.5 553.5,580.5 552.2,580.8C548,581.9 543.8,582.9 539.6,584.5C538.5,584.9 534.1,585.5 532.8,585.6C529.4,586 528.7,585.3 525.2,586.3C523.6,586.8 518.717,585.603 513.699,585.947C508.186,586.325 489.3,585.3 489.3,585.3C485.9,585.2 478.4,585.9 475.7,584.8C474.6,584.3 464.4,583.7 462.7,583.2C461.4,582.9 459.4,583 457.9,582.9C455.3,582.8 456.2,582.3 454.1,582.1C450.6,581.7 448.8,581.5 445.8,580.6C442.8,579.7 437.9,578 435.2,576.4L426.3,570.8C425.1,569.6 423.3,568.9 421.8,567.9C421,567.3 421.4,567.3 420.6,566.7C420,566.2 419.6,566.2 419,565.6L403,555C402,554.4 400.9,553.3 400.1,552.9L397,551.3C395.7,550.5 396.1,550.5 395.3,549.2C394.6,548.1 394.3,546.5 393.6,545C389.1,535.5 390.7,527.1 390.7,517.1C390.7,512.1 390.2,512.8 389.9,509.4C389.7,507.1 388.3,505.4 387.4,503.5C386.6,502 383.9,498.6 382.6,497C381.8,495.9 381.3,494.5 380.7,493.3C379.7,491.2 377.6,488.5 376.1,486.9C373.3,483.9 370.6,481.9 367.6,478.5C364.9,475.4 362.5,471.8 361.2,468.1C360.2,465.2 360.3,461.5 361.8,459.2C362.1,458.8 364.3,456.7 364.7,456.5C369.2,453.5 370.4,451.5 376.4,451.4C379.1,451.4 378.8,451.5 380.9,452.4C386.9,454.9 383.3,452.6 387.3,457.2C388.3,458.3 388.4,458 389.2,459.4C391.2,463.2 388.7,470 396.4,475.6C401.6,479.4 403.6,478.7 406.7,479.6C407.5,479.8 407.4,480.1 408.7,480.3C410.4,480.5 411.9,480.3 413.7,480.7C414,481.4 414.3,483 414.6,483.9C414.9,485.2 415.4,485.4 415.7,486.6C416.8,490.9 416.4,496.5 417.3,500.7C418.4,506 422.4,511.8 426.3,515.2C427.2,516 427.7,516.4 428.4,517.2C430.2,519.4 432.6,520.7 434.6,522.5L442.4,528.7C444.9,530.7 447,533.2 449.3,535.5C450.6,536.8 454.7,539.2 456.3,540.3C459.7,542.6 464.6,543.2 468.6,543.8C472.3,544.4 474,543.3 475.6,543.2C477.7,546.9 476.1,548.9 479.8,552.9C480.9,554.1 481.4,555.1 483.9,556C485,556.4 485.4,556.8 486.4,557C491.4,558 496.9,558.4 501.8,558.8C505.3,559.1 508,558.6 511.1,557.5C511.9,557.2 512.5,556.8 513.1,556.6C513.6,557.2 514.3,560.2 514.7,561.5C515.2,563.2 517.7,565.9 519.2,566.5C525.2,568.9 519.6,567.3 526.9,568.3C530.7,568.8 534.4,568.1 537.7,566.9C544.8,564.3 545.1,560 549.8,556.8C550.2,556.5 550.3,556.5 550.7,556.2L554.1,551.6C554.7,550.8 554.9,550.8 555.6,549.8C556.2,549 556.4,548.8 556.9,548.1L559.1,545.3C559.4,544.8 559.4,544.9 559.8,544.5C562.4,541.8 564.5,539 567.3,536.3C568.1,535.5 568,535.4 568.9,535C568.9,532.9 568.8,531.6 567.2,531C563.8,529.7 560.3,535.3 558.6,537.7C557.2,539.7 555.1,541 553.6,543.1C552.9,544.2 553.1,543.5 552.3,544.5L548.1,550.4C547.7,550.9 547.3,551.2 546.8,551.7C546,552.6 545.3,553.5 544.4,554.4C543.5,555.3 542.3,556 541.6,556.9C540.8,557.9 540.3,558.9 539.3,559.6C537.4,560.9 535.1,562.1 532.1,562.7C529.9,563.1 524.7,562.9 522.9,562C518.5,559.9 520.5,559.5 518.9,555.7C517,551.3 517.2,551.8 519.4,548.2C520.3,546.7 520.7,546.7 522.1,545.6C522.8,545 522.8,544.9 523.5,544.3C525.6,542.7 534.3,533.4 534.8,532.7C537.1,529.2 537.4,529.8 539.6,527.4C540.5,526.4 541.2,525.6 542.1,524.6C543.1,523.6 543.5,523 544.6,522.1C545.6,521.3 546.1,520 545.5,518.2C545,516.7 543.8,516.4 542,516.7L534,524.9C532.6,526 531.9,527 530.8,528.5C529.2,530.7 526.3,533.4 524.3,535.6L519.9,540.3C518.2,542.2 517.5,541 513.1,547.4C512.4,548.4 512.3,549.3 511.5,550.3C508.7,553.9 502.3,552.4 498.3,552.3C496.7,552.3 495.1,552.4 493.5,552.2C489.8,551.8 492.6,551.3 485.3,550.8L483.2,547.6C482.6,546.4 482.4,545.2 482,543.8C481.3,541.4 481.8,539.6 482.9,537.6C484.3,534.9 485.3,531.6 486.7,529L493.1,520C494.8,518.3 495.8,515.7 497,513.9C498.2,512 501.8,509.3 503.7,507.8C505.9,506.1 509.3,504.4 510.9,502.6C513.7,499.4 510.7,496.1 507.7,498C507.3,498.3 506.9,498.7 506.3,499.2L498.9,504.2C496.7,505.7 494.3,508.3 492.4,510.5C490.5,512.6 490.1,514.9 487.4,518C486.6,518.9 486,520.2 485.4,521C483.9,523.1 482.7,524.2 481.3,527C480.9,527.9 480.6,528 480.3,528.6C480,529.3 480.1,529.8 479.8,530.5C479.4,531.5 478.7,532.5 478.1,533.9C477.6,535.1 477,536.3 476.5,537.3C474.1,537.4 472.4,538.2 470.4,538.1C468.5,538 466.5,537.4 464.4,537.1C460.4,536.5 457.6,533.9 455,532.3C452.6,530.8 451.4,529.1 449.5,527.2C448.9,526.6 448.5,525.9 447.9,525.2C445.7,522.6 443.8,520.2 442.7,516.2C442,513.6 442.8,512.2 443.9,510.5C444.8,509.2 445.5,507.6 446.6,506.1C447.7,504.7 448.5,503.6 449.5,501.9C451.7,498.2 454.1,496.4 457,493.4C457.5,492.9 457.2,493 457.9,492.6C459.5,491.6 461.2,491.3 462.9,490.4C463.6,490 464.5,489.6 465.3,489.2C466.5,488.7 468.4,487.6 469.8,486.8C472.8,485.1 475.8,482.9 478.8,481.6C485.2,478.7 483,478.9 485.3,477.5C487.4,476.3 489.6,474.7 491.3,472.8C493.7,470.4 496.6,468.6 499.1,466.4C501,464.8 505.8,461.8 507.1,460.5C508.5,459.1 509,456.9 507.1,455.7C504.8,454.3 503.1,456.2 502,457.2C500.7,458.3 499.2,459 497.8,460.1C496.8,460.9 497.4,460.8 495.9,461.7C495.1,462.2 494.7,462.5 493.9,463.3C492.9,464.2 493.2,464.1 491.9,464.8C489.7,466 488.2,468.2 486.2,469.8L484.2,471.4C483,472.6 482.7,472.6 482.2,472.3ZM299.4,348.5C297.3,348.5 285.8,346.9 284.3,346.2C281.6,345 280,345.4 277,344.9C275,344.5 272.4,343.6 270.1,343.3C267.4,343 259.1,340 257.1,338.8C254.9,337.6 247.2,335.6 244.1,334.6C242.3,334 239.6,332.6 237.9,331.9L217.8,326.2C213.7,325.4 198,315.4 198.1,311.5C198.1,310.1 199,309.4 200.5,309.4C203.8,309.5 212.5,318.5 219.4,320.7C223.8,322.1 228.5,323.5 233,324.3C236.9,325 239.1,326.3 242.7,327.6L252.2,331.1C254.7,331.9 256.5,332.2 258.8,333.1C259.9,333.5 260.5,334.1 261.8,334.5C263,334.9 263.7,335.4 264.8,335.7C265.9,336.1 267.1,336.3 268.2,336.7C269.2,337 270,337.5 271.3,337.8C273.7,338.3 276.4,338.8 278.6,339.2C280.7,339.5 283.9,339.8 286,340.3C287.3,340.6 288.1,341 289.4,341.3L300.9,342.6C306,342.6 310.7,341.9 315.7,342.4C319.9,342.9 324.5,343 328.9,343.3L341,345.4C343.3,346.1 344.1,346.3 346.6,346.8C350.3,347.5 354.2,348.9 358,349.6C359.9,349.9 362.4,350.1 364.2,350.6C367.4,351.5 373.3,351.9 377,352L389.8,353.4C396.1,354.1 403.3,355.2 409.6,354.3C412.9,353.8 416.9,353.8 420.2,353.7C421.4,353.7 423.3,354.1 425.2,354.1L432,354.1C437.1,354.1 447.1,356.2 455,355C465.1,353.4 480.6,354.2 488.8,352.8C489.6,352.7 492.6,351.8 493.4,351.4C494.7,350.7 496.3,350.4 497.3,349.4C498.3,348.4 499.4,347.6 500.4,346.6C501.5,345.6 502.2,344.6 503.3,343.6L508.2,339.6C508.9,339.2 509.4,338.9 510,338.5C510.9,337.9 512.7,336.5 513.5,335.7C514.6,334.6 515.3,333.8 516.5,332.7C520.2,329.5 523.2,323.3 527.1,319.6L530.1,316.6C531,315.8 530.7,316.4 531.7,315.2C532.2,314.6 532.5,314.2 533.1,313.6C536.8,309.6 541.1,302.6 540,297C539.2,292.8 538,293.2 536.4,288.7C536.1,287.7 534.9,285.8 534.3,284.9C533.6,283.8 532.8,281.9 531.6,281.6C531.5,281.7 531.5,281.8 531.5,281.8L530.9,284.7C530.4,287.8 529.5,290.7 528.6,293.7C527.5,297.3 523.2,305.7 521.2,309.1C519.4,312 513.9,319 511.7,321.9C510.6,323.3 510.7,322.8 509.7,323.7C506.7,326.6 502.8,329.9 498.8,331.8L493.6,333.9L475.1,337.9C472.5,338.2 469.8,338.1 467.1,338.1C460.3,338.1 451.3,339.3 446.4,339.3L439.3,339.3C434.8,339.3 430.6,338.4 426,338.2C423.5,338.1 421.6,338.1 419.2,337.8C411.9,337 405.1,336.5 397.9,336.3C395.3,336.3 393.4,335.7 390.8,335.5C388.3,335.3 386,335.1 383.4,335.1C377.5,335.1 368.7,335.8 363.6,334.3C358.9,333 353.4,333.4 348.6,332.4L333.7,330.2C328.6,329.9 323.6,328.9 318.6,328.3C317.3,328.1 316,327.9 314.8,327.7C313,327.4 312.9,327.3 311.5,326.8C309.2,326 299.2,324.7 297.1,324L283.3,320.9C280.7,320.6 279.1,319.6 276.7,319.2C274,318.8 272.2,318 269.6,317.7C268.3,317.5 267.1,317.5 265.8,317.3C264.3,317 264,316.7 262.5,316.4C260.1,316 257.1,316 254.9,315.5C252.4,314.9 250.4,314.4 247.7,314.1C244.4,313.7 237.8,311.7 234.2,310.7C232.4,310.2 229.8,309.1 228,308.3C226.4,307.6 223.5,306.9 221.6,306.3C220.5,305.9 219.2,305.7 218,305.5L205.2,301.4C204,300.9 203.4,300.6 202,300.5C197.3,300 184.2,294.7 181.3,298.8C179.9,300.7 178.8,302 178.4,304.5C177.3,311.8 177.4,309.7 179.5,314.8C180.7,317.7 183.1,319.5 185.4,321.3C188.4,323.6 192.7,325.6 195.3,328.6C196.8,330.2 198.8,330.9 200.6,331.9C201.3,332.3 201.2,332.3 201.8,332.7L205.9,334.9C207.9,335.7 209.7,336.9 211.5,337.9C216.7,340.6 213.9,339.1 217.7,340.3C220.4,341.1 230,348 233.5,349.9C234.5,350.4 235.4,350.7 236.5,351.3C237.4,351.8 238.5,352.1 239.4,352.6L250.5,358.4C252.2,359.3 254.9,360.1 256.7,360.8L265.2,365C268.4,367.2 276.3,370.1 279.4,371.8C281.5,373 282.9,373.7 285.1,374.7C287.1,375.6 289.2,376.3 291.2,377.2C295.6,379.1 300.4,379.2 305,380.3C307.2,380.8 310,381.1 312.3,381.3C315.5,381.5 316.7,382.2 319.6,382.6C322.1,383 324.8,382.8 327.4,383C330.4,383.2 332.1,384 334.6,384.4C339.5,385.1 338,385.5 341.3,386.3C344,387 345.4,387.6 348.4,387.6C359.4,387.8 370.6,387.5 381.6,388.2C384.4,388.4 386.4,389 389.3,388.9L397.9,389.2C412,389.4 426.1,388 440.3,387.4C443.8,387.3 446.8,386.5 450.4,386.5L467.2,387.3C478.4,388.3 478.7,388.5 487.8,385.7C489.5,385.2 492.1,384.5 493.5,383.6C495.2,382.6 496.8,381.8 498.4,380.8C500,379.8 501.1,378.5 502.8,377.5C503.6,377 504.6,376.4 505.3,375.9C507.5,374.3 510.5,369.5 512,367.2C512.9,365.8 512.3,366.1 513.6,364.9C514.5,364.1 515,364 515.7,363.1L518.1,359.5C518.7,358.7 518.5,359.2 519.2,358.5L520.2,357.4C521.2,356.4 522.7,352.2 522.9,350.6C523.8,342.8 522.2,344.1 520.9,341C519.4,337.4 519.2,338.7 517,340.6C516.3,341.2 515.6,341.7 514.8,342.3C513.6,343.3 513.9,343.1 512.3,343.9C510.7,344.6 507,348.2 505.9,349.4L501.8,353.3C499.6,355.1 496.6,356.4 493.9,357.5C492.6,358 492.2,357.9 490.8,358.3C486.9,359.3 480.3,359.5 475.8,359.4C470.7,359.4 466.5,360.3 461.6,360.4C454.2,360.6 446.6,361.3 439.1,360.6C421.8,358.9 408.2,361.7 390.3,359.1C388.1,358.8 385.7,358.8 383.4,358.6C380.9,358.4 379.7,358 377.1,357.9C366.7,357.4 365.7,356.5 357.6,355.4L339.9,351.1C337.9,350.4 335.9,350.4 333.6,350C331.5,349.7 330.2,349.1 327.5,348.9C317.8,348.1 309,348.5 299.4,348.5ZM445.9,208.9C445,208.5 443.3,208.5 442.2,208.7C441.1,208.9 440.7,209.4 440.3,210.4C438.2,215.3 444.7,218 446.9,214.3C447.7,212.7 447.6,209.7 445.9,208.9ZM280.5,201C276.3,199.3 270.7,205.6 276.2,208.9C281.5,212 285.2,203 280.5,201ZM469.7,196.3C466.4,195.1 461.8,201.4 464.6,207.9C466.3,211.8 469.5,211.4 472.1,211.4C475.1,211.4 475.9,210.3 477.2,208.8C478.7,207.2 478.4,205.1 478.4,202.4C478.4,200.9 478.4,200 477.7,199.2C475,195.7 471.9,197.2 469.7,196.3ZM310.6,191.9C308.7,191.1 304.8,192.7 303.3,193.4C293.1,198.1 298.1,209.5 303.9,209.5C307.8,209.5 309.2,209.8 312.4,208.3C317.3,206 319.1,198.2 316.8,195.2C314.5,192.2 312.9,192.8 310.6,191.9ZM443.2,189.3C441.1,188.7 439.3,191 438.8,192.7C438,195.4 439.6,197.7 441.6,198.1C446.3,199.1 449.8,191.1 443.2,189.3ZM416.5,221.4C418.1,221.8 421.5,223.2 422.9,223C423,221 421.5,217.2 421.4,214.1C421.3,210.2 422.1,208.4 422.5,205C423.1,199.6 424,199.8 424.9,197.2C425.3,195.8 425.4,194.7 426.1,193.3C426.6,192.3 427.6,191.1 427.4,190.3C426.5,190.5 420.2,197.4 419.3,198.3C417.4,200.2 410.1,210.1 409.7,213.3C408.8,220 407.5,219.2 416.5,221.4ZM276.9,184.4C275.4,183.8 274.3,184.2 273.1,185.1C271.9,186 271.7,186.3 271.1,187.8C270.2,190.2 272.4,193 274.2,193.2C277.9,193.7 280.2,191.2 280.5,189.9C281.2,186.8 279.2,185.3 276.9,184.4ZM483,224.8C484.7,225 494.3,223.3 495.9,222.8C499.3,221.7 503,219.8 505.7,217.9C511,214.1 512.8,211.2 516.7,206.7C517.6,205.6 519.7,204.4 520.2,203.1C521.9,198.7 516,197.9 512.3,196.5C509.7,195.5 500,190.9 497.6,189.3C496.1,188.4 494.8,187.4 493,186.5C491.4,185.7 483.9,182.3 482,183.5C482.4,184.5 482.1,183.8 482.8,184.6L487.6,192.3C490.5,199.7 491.7,208.8 488.1,216.1C487.3,217.7 486.7,219.4 485.8,220.9C484.9,222.2 483.2,223.6 483,224.8ZM258.8,184.5C261.4,181 261.9,182.1 262.3,180.4C261.8,180.1 262.2,180.2 261.5,180.1L261.2,180.1L240.7,182.1C237.7,182.2 222.1,184.2 220.6,185.4C220.8,186.5 221,186.1 222.3,186.5L228.3,188.9C231.3,190.2 233.8,190.6 236.7,191.8C239.7,193 241.9,193.9 244.6,195.2C248.8,197.1 249.3,199.4 250.6,199.8L251.1,199.8C251.6,199 251.6,197.7 251.9,196.7C253.2,191.9 256,188.3 258.8,184.5ZM331.8,228.4C340,229.1 352.8,228.9 359.9,226.3C362.5,225.4 365,223.9 367.2,223.3C369.9,222.5 371.9,221.1 375.1,220.8C376.2,220.7 381.7,222.2 378.9,215.3L370.1,193.2C368.8,189.6 364,184.4 361,181.9C357,178.6 357.9,178.9 353.9,178.8C352.1,178.7 350.9,178.4 348.9,178.4C347,178.4 345.8,178.7 344.2,178.7C337.4,178.7 331.5,179.7 324.7,179.7C325.8,183.4 332.7,181.7 331.4,204.4C331,211.8 328.2,219.8 323.6,225.6C322.8,226.7 323.2,225.5 322.9,227L331.8,228.4ZM442.3,174.6C442.4,173.5 442.9,173.8 443.9,173.2C444.8,172.7 445.1,172.3 446,171.7C446.9,171.1 447.5,170.8 448.2,170.3C452.6,167.6 454.4,165.6 460.4,165.1C469.8,164.3 476.9,163.2 486.3,164.4C491.1,165 499.1,165.4 503.8,167.6C508.8,170 507.5,170 509.3,172.5C509.9,173.4 510.2,173.6 510.7,174.6L518,185.1C518.6,185.9 518.9,186 519.7,187C522,189.9 522.2,188.7 522.9,190.6C523.5,192.4 524.2,196.4 521.1,193.6C519.6,192.2 514.8,191 511.5,189.3C508.3,187.6 505.2,186.6 502,184.8C500.4,183.9 498.3,182.3 495.6,180.8C491.4,178.5 486.8,177.3 481.9,177C479.8,176.9 478,176.4 475.7,176.4C473.4,176.4 471.2,176.2 469.1,176C465.8,175.7 442.9,175 442.3,174.6ZM343.5,172.4C342.3,173.4 341.7,172.6 340,172.7C338.7,172.8 337.3,173.2 335.8,173.2L317.7,174.3L271.2,173.5C265.8,173.5 260.8,174.6 255.8,174.7C250.9,174.8 244.9,175.5 240.4,176.2C233.8,177.2 224.7,177.6 218.8,179.8C217.7,180.2 216.8,180.5 215.9,181C215,181.5 214.2,182.4 212.7,182.3L206.8,179.8C204.7,178.6 205.7,178 208.1,175C209.5,173.2 209.6,172.4 212.6,169.2L215.8,165.9C217.1,164.4 221.3,162 223.1,160.8C224.7,159.8 236.4,155.9 238.8,155.2C244.8,153.3 253.1,152 259.8,151.3C261.1,151.2 262.6,151.2 263.7,151L278.7,149.3C288.4,149 288.4,149 298.6,150C304.3,150.5 312,154.2 317,156.8L329.6,165.2C330.9,166 330.8,166.3 332.3,167L335,168.5C335.8,168.9 337,169.3 337.9,169.8C339,170.1 343,171.6 343.5,172.4ZM391.3,453.3C393.5,453.3 392.8,452.6 393.9,451.1C395.6,448.9 400.7,446.6 403.4,445.1C405.4,444 407.8,442.2 409.4,440.8C410.3,440 411.2,439.4 412.2,438.6L417.6,433.6C420.1,430.7 422.8,429.1 425.5,426.1C427.3,424.1 429.1,423.2 431.1,421.4C433.6,419.1 437.4,417.1 440.3,415.2C441.6,414.3 442,413.7 443,412.9C444.8,411.4 447.8,410.8 450.2,409.7C452.8,408.5 454.4,407.3 457.1,406.2C462.3,404.1 469.7,403.6 475,405C476.8,405.5 479.9,407.9 481.4,409L489.7,416.1C493.5,419.7 492.9,418.3 496.1,415C496.8,414.3 497.1,414 497.7,413.4L499.2,411.4C501,409.3 503.9,406.1 505.1,403.4C506.3,400.4 508.3,396.9 508.8,393.5C509.3,390.2 509.5,383.5 508.3,380.9C506.9,381 506.8,381.3 506,382.1C505.2,382.8 504.6,383.1 503.8,383.8C502.4,384.9 500.9,386 499.4,386.8C498.5,387.3 498.2,387.6 497.2,388.2C494.7,389.5 491.9,390.7 489.1,391.4C481.3,393.2 487.2,393.2 476.3,393.5C467.5,393.7 456.4,391.9 447.9,392.6C443.4,392.9 438.7,393.5 434,393.6C424.4,393.8 415.4,395 405.6,395C400.8,395 395.7,395.2 390.9,394.9C388.3,394.7 386.5,394.9 384,394.4C382.4,394.1 379,393.9 377.2,393.9C372.5,393.8 367.7,393.4 362.7,393.4C357,393.4 346.3,394.2 341.2,392.5L335.7,390.6C329.3,388.3 320.4,389.1 316,387.8L296.6,384.7C289.6,383.5 284,380.4 277.8,377.7C276.9,377.3 276.3,376.7 275.4,376.3C271.8,374.6 268.9,373.7 265.2,371.7C259.8,368.7 255.8,366.7 249.9,364.5C248.9,364.1 248.5,363.9 247.5,363.3C245,362 243.5,361.9 239.9,359.7C238,358.5 237.1,358.2 234.9,357.3C230.8,355.5 228.8,354.1 225.5,351.9C224.1,351 222.4,350 220.9,349.1C212.7,344.2 215.2,346.7 210.6,344.3L205.7,341.8C204.6,341.3 204.6,340.9 203.5,340.5C200.9,339.4 193.6,335.5 191.7,333.6C188.2,330 179.5,325.7 176.2,321.2C175.9,320.8 175.8,320.5 175.4,320C173.1,317 171.3,312.7 171.9,308.7C172.1,307.5 172.6,303 172.9,302C173.8,299.3 176.7,294.5 179.2,293.5C182.2,292.3 181.7,292.3 185.3,292.3C190,292.2 193.8,293.3 198.3,294.3C200.2,294.7 202,295.5 204.2,295.8C206.7,296.1 223.8,301.6 227.1,302.5C231.4,303.7 233.2,305 238.3,306.4C242.2,307.4 246.1,308.5 250.1,309.4L262.9,311.4C265.1,311.6 266.7,312.4 269.1,312.7C271.6,313 273,313.4 275.3,313.9C277.3,314.3 279.6,314.6 281.5,315.1C289.3,317.4 303.7,320.1 312.1,321.8C314,322.2 316,322.7 318.2,323.1C320.5,323.5 322.7,323.5 324.8,323.9C326.9,324.3 329,324.5 331.3,324.8C333.3,325.1 336.6,324.9 338.4,325.4C346.6,327.5 356.1,327.6 364.5,329.2C373.5,330.9 384,329.2 393.2,330.4L406.6,331.8C410.1,332 418,331.7 420.9,332.5C426.4,333.9 443.1,334.4 449,333.8L463,333C465.4,332.8 467.9,333 470.3,332.9C471.5,332.9 472.7,332.8 473.9,332.7L483.1,330.8C488.5,328.9 490,331.1 499.8,324.9C502,323.5 504,321.7 505.8,320C507.9,318.1 509.1,316.1 510.8,313.8C512.8,311 515.3,308.1 517,305.2C517.6,304.2 517.5,303.6 518.1,302.8C519.1,301.5 518.7,302.1 519.4,300.3L523.9,289.7C526.3,281.8 526.3,272 521.7,265.2C521,264.1 521.2,263.8 520.6,262.8C519.6,261.3 518.6,261.2 517.3,258.7C516.4,257.1 511.8,252.9 510.1,250.7C509.5,249.9 509.2,249.3 507.8,249.3C506.3,251.4 507,251.3 504.5,254C503.9,254.7 503.9,254.8 503.3,255.5C502.4,256.7 498.9,259.5 497.3,260.2C493.5,261.9 483.1,262.8 478.2,262.1C474.4,261.5 474.8,256.9 478.1,256.4C479.2,256.2 482,256.5 483.3,256.5C487.9,256.5 495.1,255.9 498.1,252.5C498.8,251.7 499.5,250.5 500.5,249.6C501.2,249 501.5,249.1 501.5,247.9C500.1,247.7 497.4,248.4 495.7,248.5C493.3,248.6 491.8,248.2 489.5,248.2C487.2,248.2 485.4,248.2 483.2,248C481.8,247.9 481.6,248.2 480.7,247.1C479.1,245.1 480.2,242.2 484.7,242.5C495.7,243 501.9,243.9 510.3,235.9C511.5,234.7 512.4,233.8 513.4,232.5L515.5,229.5C516.6,228.2 518.2,226.3 518.9,224.7C520.4,221.5 522.3,218.5 522.6,215C522.7,213.6 523.8,210.6 523.1,209.4C523,209.3 522.8,208.3 521.7,209.9C521.2,210.6 521.1,211.1 520.5,211.7C519.6,212.7 518.7,213.4 517.8,214.6C515.7,217.6 513.2,219.4 510.9,221.6C508,224.3 501.8,227.7 498.2,228.8C495.4,229.6 491.9,230.4 488.8,230.7C485.4,231.1 482.1,231.7 479,232.2C476.7,232.5 459.4,232.3 456.8,232.1C453.3,231.8 450.3,231.3 446.5,231.3C437,231.3 424,231 415.7,228C412.1,226.7 406,226.7 403.9,222.8C403.2,221.5 402.4,220.2 402.5,218.4C403,208.5 405.9,207.1 408.9,201.8C409.9,200.1 411.3,198.8 412.4,197C413.1,195.9 412.9,196.4 413.8,195.4C414.2,194.9 414.5,194.5 415,193.9C418.3,190.3 421.6,188.2 424.5,183.5C425.9,181.1 427.7,179 429.6,177.1C430.6,176.1 431.4,175 432.3,174.2C435.9,171.3 445.6,164.8 449.1,162.9C452.7,160.9 453.7,160.4 457.8,160L467.8,158.8C475,158.5 482.2,158.3 489.3,159.2L499.4,160.6C502.1,161.4 505.4,162.4 507.7,163.6C509.3,164.5 510,164.9 510.9,166C511.5,166.7 511.7,166.8 512.2,167.4C513.7,169.3 518.1,175.4 519.1,177.4C519.9,179.1 519.4,178 520.4,179.1C521.5,180.4 521.3,182.1 523.2,182.2C523.8,180.3 523.8,170.7 523.1,168.1C521.5,162 523.7,162 517.6,158.6C510.5,154.6 506.4,153.4 498,153.2C496.3,153.2 495.2,152.7 493.8,152.5C485,151.3 462.2,150.8 455.5,152.2C447.3,153.9 440.9,156.3 434,160.9L428.2,165.1C427.6,165.6 427.4,165.5 426.8,166.1C425.5,167.3 424,168.3 422.8,169.8C421.7,171.3 419.3,174.3 417.4,174.5C414.2,174.8 413.4,171.5 415.4,169.3C417.1,167.5 418.6,165.8 420.3,164.1C422,162.4 423.8,161.3 425.7,159.5C427.3,157.9 429.8,156.8 431.7,155.4C433.5,154.1 439.5,151 441.4,150.3C452.3,146.3 450.5,147.5 462.1,145.9C467,145.2 476.2,145.7 481.4,145.9C483,146 483.8,146.4 485.8,146.4L495.6,147C497.6,147.3 496.8,147.5 499.8,147.6C506.5,147.7 510.2,148.9 516.5,151.2C519,152.1 523.9,155.2 525.5,157.2C526.5,158.4 526.6,159.3 528.4,159.2C528.2,155.8 518.4,150.4 516.4,148.9C511.9,145.5 507.3,142.3 501.6,140.9C499.6,140.4 484.2,138.9 480.8,138.9C473.5,138.9 452.3,140 446.6,142.6C445.4,143.2 445.1,143.2 443.8,143.7C441.6,144.5 437.5,147.8 435.2,146.6C434.3,145.6 433.6,144.7 434.3,143C435.1,141 435.6,141.6 437,140.6C439,139.2 443,137.6 445.5,136.7C448.5,135.6 458,134.6 461,134.3C470.1,133.5 479.7,132.6 489.1,133.5C491,133.7 496.6,134.6 498.1,134.5C498.9,132.8 497.5,131.7 496.7,130.4C495.3,128 493.4,126.2 491.8,124C490.7,122.5 489.7,121 488.1,119.4C485.7,117.1 484.2,115.1 481.4,113C480.7,112.5 480.2,112.2 479.5,111.7C478.6,111 478.9,111 477.6,110.3C475.9,109.4 475.3,108.4 473.9,107.5L464.3,100.8C462.3,99.6 459.7,98.8 457.9,97.4C453.3,94 448,91.9 442.8,89.7C441.7,89.3 441.8,89 440.6,88.6C438.9,88 437.1,88 435.3,87.4C421.5,83.1 411.1,81.4 395.8,81.4C392.4,81.4 387.3,82 384,82.6C378.5,83.5 372.8,83.8 367.5,85.6C363.4,87 362.5,87.7 357.6,88.8C355.3,89.3 355.6,89.8 352.4,90.1C352.4,91 353.5,91.9 354.1,92.5C358.3,96.9 361.1,99.6 364.6,104.8C365,105.5 365.1,105.3 365.5,105.9C365.9,106.4 366,106.9 366.3,107.4L371.5,115.8C372.2,117.1 373.9,119.5 374.9,121.6C376.1,124.3 377,125 378.4,127.3C380.1,130.1 381.3,133.8 382.7,136.6C383.5,138.2 384,142.4 383.8,144.2C383.5,146.9 381.3,148.7 383.6,150.8C385.2,152.3 386.4,154.1 387.9,155.7C391.2,159.4 393.7,161.1 396.3,165.7C397.1,167.2 398.9,174.8 399.1,176.8C399.4,179.2 399.6,183 399.7,185.4C399.7,187.5 400.1,192.6 399.4,194.1C398.3,196.6 394.7,195.8 394.1,193C393.3,189.7 394.3,180.1 393.3,175.5C390.8,164.8 389.2,165.9 382.9,158.7L378.7,153.8C377.1,152.3 374.5,150.7 372.9,148.7C369.6,144.7 363.6,139.1 358.7,137.4C354.8,136.1 346.1,135.6 342,135.9C339.1,136.1 336.1,136.3 333.1,136.2C331.1,136.1 326.1,134.9 325.1,136.7C325.6,137.8 330.1,139.1 331.4,139.6C333.7,140.4 335.8,141.4 338.2,142.3C341.4,143.4 344.5,145.2 347.1,147.3C348.4,148.4 348.6,148.2 349.8,149.3C352.9,152.3 356.5,155.4 359.1,158.6C360.1,159.8 360.2,160.1 361.4,161.1C362.4,161.9 363,162.6 363.9,163.3C365.6,164.6 367.6,166 369.2,167.4C372.7,170.5 375.2,173.4 378.6,176.6L383.1,181.2C385.6,183.3 388,185.5 389.9,188.3C390.6,189.3 391.3,190 391.9,191.1L393.5,194.2C395.2,198.6 396.2,198.9 396.8,205C397.1,207.5 398.2,211.7 396.1,213.1C395.1,213.5 394,213.6 393,213.1C392.1,212.5 392.5,213 392.1,211.5C391.9,210.7 391.8,210 391.8,209.1C391.7,206.3 390.7,203.6 390.2,200.7C390,199.4 389.2,198.4 388.6,197.3C387.4,194.9 386.2,192.8 384.9,190.9C383.2,188.6 379.5,185.4 377.2,183.2L374.6,180.7C370.9,177.4 368.6,173.7 364.3,170.9C357.8,166.6 354,161.5 348.6,156.1C343.1,150.7 336.8,147.1 329.4,144.8L322.2,142C317.8,140.5 307,135.9 302.8,136.2C294.5,136.8 286,135.6 277.8,136.5C275,136.8 271.7,137.5 268.6,137.5L258.5,137.5C254,137.5 242.9,136 239.1,137.1C238,137.4 236.5,137.9 235.3,138.3C233.8,138.7 232.2,138.8 230.9,139.2C225.6,141 220.8,142.2 216.4,144.8C214.2,146.1 212.7,147.9 211.1,149.5C209.3,151.2 207.7,152.6 205.9,154.6C203.7,157 200.5,159.6 198.5,162.3C196.1,165.4 192.8,167.7 191.5,170.7C190.6,172.8 190.3,177.4 191.5,179.1C198.2,179.6 199.6,176 202.8,171.8C209.6,162.8 205.3,168.1 211.6,161.6C213.6,159.5 217.5,157.3 220,155.7L230.3,151.7C232.7,151.1 235.6,150.3 237.9,149.5C241.8,148.1 241.7,148.5 245.6,147.7C248.2,147.2 250.6,146.7 253.6,146.3C256.4,145.9 259.8,145.9 262.3,145.4C264.5,145 268.2,144.4 270.5,144.2L279.2,143.6C282.2,143.6 285.1,143.3 288.4,143.3L296.7,144.1C300,144.5 302,144.6 305,145.7C306.2,146.1 307.6,146.3 308.8,146.6C310,147 310.9,147.6 312,148.2C314.7,149.6 317.7,150.3 320,152.1C320.7,152.6 320.4,152.5 321.4,153.1C324.7,154.9 332.5,160.8 334.2,161.6C334.8,162 335.2,162 335.8,162.4C338.5,164.2 342.4,165.6 345.5,166.9C346.9,167.5 347.4,168 348.6,168.5C352.9,170.1 357.6,172.4 361.2,175.1C362.3,176 362.8,176.4 363.8,177.2C364.4,177.7 366,178.8 366.4,179.3C368,181.1 369.7,182.3 371.1,184.1L374.7,190.2C375.7,192.5 376.4,194.7 377.5,197L379.5,202.1C381.4,205.9 382.3,210.3 384.4,213.8C385.3,215.3 384.7,216.7 385.3,217.9C385.6,218.5 388.6,219.5 389.4,220.1C390.8,221 391.7,222 392.6,223.1C393.2,223.9 393.4,223.8 393.7,225C394.4,227.4 394.8,231.1 394,233.3C392.5,237.4 387.1,240.4 384.4,242.4C379.3,246.3 375.2,246.5 370.9,250.5L366.3,255.4C364.2,257.9 362.3,259.3 360.1,261.7C359,262.8 358.3,264 357.3,265.1C354.7,268.2 352.6,270.1 349.4,272.6C348.6,273.2 348.1,273.4 347.5,273.9C344.2,276.8 340.7,279.9 336.5,281.6L327.7,285.3C326,285.8 325,285.8 322.7,286.6C321,287.2 319.8,287.8 318.2,288.3C316.4,288.9 314.9,289 313.3,289.7C307.1,292.3 301.9,294.7 295.5,296.8C291.7,298.1 288.2,297.5 283.9,297.7C282.3,295.1 282.6,294.9 283.9,292.2C286,292.2 289.1,292.1 291.1,291.9C293.5,291.6 295.9,290.7 298,289.7C298.3,289.6 299.1,289.3 299.3,289.2L304.5,287.1C305.9,286.6 306,286.4 307.2,285.9C308,285.5 309,285.4 309.9,285C311.3,284.4 310.7,284.2 312.5,283.8C314.9,283.3 316.2,283 318.3,282.1C320.3,281.3 321.7,280.8 323.9,280.3C326.5,279.7 327.3,279 329.6,278.3C332.7,277.3 334.7,275.7 337,274.8C338.9,274 339.7,272.8 341.3,271.7C342.7,270.7 343.9,269.2 345.3,268.3C347.2,267.2 350.1,265 351.5,263.3C353.1,261.4 352.3,261.8 354.8,259.2L358.4,255.4C359.5,254.3 361.7,252.5 361.9,251.4C361.5,251.2 354.1,251 352.1,250.6C348.6,249.9 344.6,250.2 341,250.2C337.2,250.2 333.5,249.9 330.1,249.9C328.3,249.9 326.6,249.8 324.8,249.5C322.8,249.3 321.6,248.8 319.9,248.5C316.4,247.9 313,247.9 309.4,247.7C304.7,247.5 292.6,246.5 288.2,245.8L278.1,244.3C276.2,244.1 274.9,244.3 273,243.7C271.6,243.3 270,242.8 268.5,242.5C265.5,241.8 263.1,240.2 260,239.5C256.2,238.6 253.7,236.5 250.7,234.6C248.4,233.1 247.7,232.6 245.8,230.6C241.8,226.5 238.1,223.3 233.9,219.7C231.8,217.9 230.2,215.8 227.7,214.4C226.5,213.7 225.2,213.2 224.4,212C223.6,210.8 224.2,208.9 225.7,208.1C228.7,206.5 233,211.5 234.7,212.7C237,214.5 246.4,222.9 247.8,224.5C248.6,225.4 248.7,225.5 249.5,226.3C251.1,228 251.4,228.1 253.5,229.4C261.6,234.5 261.8,233.1 267.9,236C273.8,238.8 279.8,238.1 286,239.2C294.3,240.8 303.2,241.5 311.5,241.8C313.8,241.9 315.7,242.2 318,242.3C323,242.5 325.8,243.9 330.8,244C335.4,244.1 339.9,244.3 344.5,244C348.8,243.8 353.6,244.7 357.6,245.1C359.7,245.3 362.3,245.3 364.4,245.1C366.3,244.9 368.4,243.9 369.9,243.4C371.6,242.7 373.2,242 374.8,241.2C380.2,238.6 383.3,236.5 387.6,232.6C388.5,231.7 388.5,232.1 388.7,230.3C389.2,226.2 385.3,223.9 384.4,224.1C383.4,224.7 383.6,225.1 382.2,225.9C379.2,227.7 375.7,226.5 372.7,227.9L358.8,233.2C356.9,234.3 351.3,234.5 348.9,234.8C343.8,235.4 339.2,235.3 334.3,234.8L323.8,233.8C322.5,233.6 322.3,233.4 320.6,233.2C316.4,232.8 311.7,231.6 307.5,230.8C304.6,230.3 303.8,230.3 301.2,229.4C300.3,229.1 298.9,229 298.1,228.6L295.5,227.4C290.7,225.6 282.7,223.2 277.6,222.2C275.5,221.8 273.7,220.9 271.8,220.2C270.3,219.7 270.3,219.4 269.2,218.9L255.6,213.2L251.7,209.4C250.3,208.1 248.9,207.2 247.5,205.9C245.9,204.4 245.5,203.6 243.5,202.2C237,197.5 229.7,196.3 221.7,193.2C218.7,192.1 214.3,189.8 211.3,188.2C209.7,187.4 207.3,186.7 205.8,186C203.2,184.9 202.7,184.1 200.9,183C196.9,184.2 190.5,186.4 187.6,182.3C184.2,177.6 184.7,174.2 186.4,168.7C187.4,165.4 189.8,163.4 192.3,161.2C193,160.6 193.6,159.5 194.2,158.7L202.9,149.6C205.4,146.8 209.4,143.3 212.1,141C216.3,137.4 219.3,137.1 224.3,135.4C231.1,133 227.7,134 234.6,132.4C236.3,132 236.6,131.8 237.9,131.3C239.9,130.6 252.7,131 255.3,131.3C260.9,132 266.9,131.4 272.4,131.1C277.9,130.9 284,130.1 289.3,130.2C293.5,130.3 298,130.8 302.3,130.3C303.5,130.2 304.9,129.8 305.9,129.7C310.1,129.3 318.3,130.1 322.8,130.4C328.3,130.8 334.7,130.4 340.3,130.1C344.6,129.9 342.3,129 348.1,130.1C350.2,130.5 354,130.5 356.3,130.7C361.9,131.3 365.5,133.3 368.8,136L373.5,140.2C374.5,141.3 376.6,144.2 378.1,144.3C379.8,141.4 376.7,135.9 375.4,133.2L372.8,128.4C371.8,126.9 370.5,125.5 369.9,123.6C369.1,120.7 367.7,120.5 365.9,116.1L361.6,109.8C359.4,106.6 358,103.9 355.2,101.1C353.9,99.8 352.6,98.5 351.3,97.3C348.3,94.5 343.1,88.4 339.9,86.2L330.8,79.9C327.8,78 324.4,75.9 321.1,74.5C317.9,73.1 319.3,73.2 315,72.9C312.8,72.8 310,72.8 307.9,72.5C305.7,72.2 306.7,71.7 305.2,71.5C294.4,70.2 283.7,70.1 272.9,69.3C268.3,68.9 263,69.8 258.4,70C256,70.1 254,70.7 251.6,70.9C246.2,71.2 241.3,72.8 236.1,74.2L230.3,76.1C227.7,76.9 224.9,78.6 222.8,80.1C221.4,81.1 219.8,82.2 218.5,83.2C216.9,84.5 216.5,85.5 214.3,86.7C212,88 209,91.5 206.2,93.7C204.8,94.8 203.3,95.8 201.8,96.7C200,97.9 196.9,98 196.5,95.6C195.9,92.3 200.9,90.7 204.4,88C206.9,86 208.2,83.7 210.2,82.5C211.1,82 211.6,81.5 212.5,80.9C215.1,79.1 217,76.7 221,74.3C223.2,72.9 222.9,72.9 225.7,71.6C235.4,67.1 246.1,66 256.6,64.3L271,63.5C276.4,63.6 301.5,64.9 306.3,66.2C309.2,67 313.6,67.3 316.7,67.4C319.6,67.5 317.5,63.7 316.8,59.3C316.3,56.2 313.8,51.8 312.2,48.8C310.5,45.6 308.6,41.7 306.5,39L303.2,34.9C300.7,32.3 293.7,26.9 290.5,24.8C283.6,20.4 276.7,17.9 268.2,16.6C263.8,15.9 258.8,16 254.4,15.2C245.3,13.7 234.7,14 225.5,14.7C217.1,15.4 213.6,15.2 205.4,17.3C202.2,18.1 202.5,18.1 200.1,19.7C197.1,21.6 194,22.6 190.4,25.1C184.9,28.8 184.8,26.4 177.1,34.6C175.8,36 174.6,36.8 173.4,38.6C172.5,40 171.6,41.9 170.5,43.1C168.6,45.2 162,54.4 161.1,56.8C160.4,58.7 159.5,59.9 158.6,61.7C157.7,63.6 156.7,65 155.9,66.7C153.5,71.8 149.6,75.5 145.8,79.4L138.7,87.4C136.9,89.3 136.9,89.9 135.5,91.9C134.6,93.2 133.5,95.2 132.4,96.2C128.7,99.2 132,95.5 128.7,100.1C127.5,101.8 126.3,102.7 125,104.1C124.3,104.8 123.8,105.3 123.1,106C122.4,106.6 121.6,107.1 121.1,107.8C119.7,109.6 120.5,109.6 118,112.1C116.8,113.3 115.6,114.7 114.8,116.6C113.9,118.6 113,119.1 111.8,120.9C110.6,122.8 110.2,124.4 109,125.8C107.9,127.2 106.9,128.5 106,130.2C104.7,132.9 101.5,136.8 99.8,139.5L95.8,146.8C95.2,148.3 95,148.1 94.3,149.2C93.3,151 92.8,152.7 91.8,154.4C91.3,155.2 90.9,155.8 90.5,156.6C89.8,157.9 89.8,157.7 89,158.9C87.2,161.6 85.4,166 84.1,169.1C83.1,171.5 79.8,176.4 78.4,178.8C77.6,180.3 76,182 75.4,183.5C74.8,184.7 75.3,184.8 74.4,186L70.6,193.7C69.2,197.5 66.7,200.1 65.6,204.1C65.1,206.1 64,207 62.9,208.9C62,210.4 61,212.2 60.4,214C59.5,216.7 57.5,218.9 56.2,221.4C54.9,224 54,226.6 52.5,228.9L47.5,239C46.7,240.6 45.5,242.4 45.1,244.3C44.6,247.1 43.6,247 42.8,249.4C41,254.7 40.3,254.5 39.2,257.4L35.8,265.6C35.6,266.3 35,267.6 34.8,268.1C34.5,269.2 34.7,270.1 34.1,271.3C33,273.9 32.9,274.1 32.3,277.2C31.7,280.2 30.7,283.1 29.3,285.5C28.7,286.5 27.1,292.7 26.8,294.2C26.4,296 25.3,297.8 25,300.1C24.7,302.4 24.5,301.6 24.1,303C23.9,303.8 23.7,305.4 23.6,306.3C23.4,307.4 23.4,308.6 23.2,309.8C23,311.2 22.5,311.7 22.3,312.7C22,313.9 22.3,314.6 22,316C20.9,321.4 21.7,319.9 21.2,322.9C21,324.2 20.7,324.8 20.4,326C19.9,328.1 20.5,330.8 19.8,332.9C18,338.5 18.6,341.4 18.2,342.5C17.7,344.2 17.4,342.7 17.4,345.5C17.4,347.9 16.6,349.5 16.5,352.3C16.5,358.2 16.1,355.5 15.5,359.1L13.5,368.3C13.2,370.6 13.2,373.2 12.7,375.2C12.4,376.5 12.7,377.5 12.4,378.8C11.2,383.4 12.2,388.5 11.2,393C10.7,395.3 11.1,397.7 10.5,399.7C9,404.7 10.5,410.4 9.6,414.2C9.2,415.7 8.8,414.8 8.8,417.2C8.8,418.8 8.8,419.3 8.4,420.7C7.6,423.6 8.3,424.9 7.9,427.6C7.7,428.9 7.3,429.4 7.1,430.7C6.9,432 7.1,433 6.8,434.3C5.3,440.3 6.3,435.8 6,440.3C5.8,444.1 3.6,449.2 5.6,453.4L6.9,463.7C6.9,465.9 7.3,465.2 7.7,466.8C8.1,467.9 7.8,469.1 8,470.3C8.5,473.3 9.4,476.3 10.5,479.1C11,480.3 11.8,484.7 12.1,485.2C12.7,486.3 12.8,485.9 13.3,487.5C13.7,488.9 13.8,489.2 14.4,490.2C15.8,492.7 16.6,495.8 17.4,498.5L21.4,506.1C22.4,507.6 23.7,509.2 24.8,510.4C26.2,511.8 26.8,513.4 28,514.9C29.3,516.6 30.3,517.3 31.5,518.8C32.8,520.4 33.8,521.1 35.3,522.7C39.8,527.4 39.3,526.1 43.9,529.2L53.3,534.9C55.1,535.8 56.2,537.1 58.2,537.7C61.9,538.7 65.1,540.8 68.6,542.5L71.4,543.5C74.3,544.4 75.8,546.7 81.6,548.7C82.6,549.1 83.6,549.1 84.6,549.5C88.2,551.1 91.6,552.2 95.6,553.6C97.6,554.3 99.6,554.4 101.7,555.2C103.2,555.8 105.7,555.7 108,556.6C110.5,557.6 116.8,560.1 119.5,560.3C120.7,560.4 121.9,560.2 123.1,560.3C124.4,560.4 124.7,560.9 126.1,561.1C127.7,561.3 128,561 129.4,561.7C131,562.5 130.5,562.1 132.6,562.2C134.1,562.3 134.2,562.6 135.5,562.9C136.8,563.2 137.9,562.9 139.1,563.1C140.6,563.3 140.5,563.8 142.1,564C143.3,564.1 144.7,563.9 145.9,564C147.2,564.1 147.5,564.6 149,564.8C150.2,565 151.5,564.9 152.7,564.9C155.8,564.9 156.7,565.8 159.3,566C162.8,566.3 166.6,565.8 170.1,566.6C174.8,567.6 183.3,565.4 188.1,567.6C188.6,567.8 222,568.7 225.3,567.5C228.5,566.4 235.6,566.2 239,566.1C241.8,566 242.3,564.9 245.5,564.9C248.9,564.9 253,565.4 256.2,564.4C259.1,563.5 301,564.1 305.7,564C308.1,564 307.7,563.1 311.9,563C318.7,563 336.3,563.8 341.5,561.9C343.2,561.3 345.9,560.9 347.7,560.4C349.2,560 352.2,559.2 353.1,558.5C353.8,557.9 357.5,556.9 358.8,556.4C362.6,554.9 361.1,554.9 364.2,554.4C365.7,554.2 365.8,553.8 366.8,553.2C367.7,552.7 368.6,552.8 369.7,552.2C375.1,549.6 373,551.5 377.7,544.9L380.7,540.5C384,536.1 385.7,537.1 384.8,530.5C383.8,523.4 386.5,517 384.3,509.5C383.8,507.8 379.5,501.9 378.2,500.2C377,498.7 376.7,497.2 375.5,495.4C371.8,489.5 369.8,488.6 364.7,483.4C363.4,482.1 362.3,481.2 361.1,479.6C360.2,478.3 359.2,476.2 358.3,474.7C356.3,471.3 354.5,467.6 355.4,462.7C356.4,457.4 356.3,456.6 360.5,452.6C366.3,447 374.8,443.7 383,446.4C384.6,446.9 387.2,447.9 388.2,448.9C390.2,451.3 390.2,451 391.3,453.3ZM456.4,89C455.1,88.7 456.2,88.7 454.9,87.9C454,87.4 453.8,87.7 452.9,87.2L449.4,85.4C447.8,84.5 447,84.5 445.6,83.8C442.8,82.4 445.5,83.3 441.7,82.4C436.3,81.2 436.8,80.9 433.4,80.1C423.3,77.6 417.3,75.7 405.8,75.6C402.2,75.5 399,75.2 395.4,75.2C393.8,75.2 392.3,75.6 390.7,75.7C388.9,75.8 387.1,75.8 385.4,76C382.6,76.4 379.4,77.2 376.2,77.4L367.3,79.3C366.3,79.6 364.8,80.3 363.4,80.7C362.4,81 362.3,81.2 361.6,81.6C360.8,82 360.3,81.9 359.4,82.1C356.6,82.6 348.5,86.1 346.4,84C340.1,77.7 331.7,73.2 323.9,68.7C323.9,65.5 322.7,56.6 321.5,54.4C320.6,52.8 319.7,50.7 319,48.7C318,46.1 316.4,44.8 316.2,42.9C317.1,41.8 324.6,37.2 324.9,36.9C326,35.8 325.2,36 326.8,35.3C332.9,32.4 333.5,29.7 337.1,26.9C337.7,26.4 338.6,25.9 339.1,25.3C339.7,24.6 340.4,23.9 341,23.4C342.2,22.5 349.8,19.3 351.4,19.1C353.9,18.8 352.6,18.7 354.3,18.4C355.5,18.2 356.6,18.1 357.8,18.1L372.6,18.2C377.4,18.7 391.3,18.9 393.2,19.7C397.3,21.4 404,25 405.8,25.7C408,26.6 406.8,26.1 408.1,27.2L413.2,29.5C415.4,30.4 420.2,33.5 422.1,35.4C426.7,39.9 425.2,38 428.9,43.4L435.9,53C436.8,53.7 436,52.5 436.7,53.9C438.6,57.5 441.7,61.8 443.8,65.5C444.8,67.3 445.8,68.3 446.6,70.1C447.2,71.6 448.3,73.5 449.2,74.9C449.9,76.1 450.2,75.7 452.2,79.3C453.5,81.6 453.2,80.4 454.9,84C455.4,85.2 455.4,85.8 456.1,86.7C456.9,87.7 457.5,87.5 456.4,89ZM357.5,13.3C353,13.3 348.1,14.6 344.3,16.4C341.8,17.6 339.6,18.6 337.5,20.2C331.6,24.5 332.9,24.4 329.2,27.9C327.3,29.7 324.8,30.8 322.8,32.5C321.6,33.5 314.2,38.7 313.1,38.7C311.7,38.7 311.1,37.1 310.4,36.1C308.8,33.6 305.1,29.4 302.5,27.7C301.3,26.9 300.5,26.3 299.5,25.4C292.5,19.8 287.4,16.8 279.1,13.8C276.9,13 274.7,12.6 272.3,12.3C271.8,12.2 270.6,12 270.1,11.9C262.2,10.5 253.9,10.4 245.8,9.5C241.9,9.1 234.4,9 230.6,9.6C227.4,10.1 223.8,9.8 220.4,10.1C218.8,10.2 217.4,10.7 215.7,10.7C207.6,10.8 201.8,12.7 195.1,16.7L184.8,22.4C183.5,23 182.4,23.5 181.3,24.3C179.1,25.8 177.6,27.2 175.8,29.1C167.2,37.7 171.3,34.1 166.1,40.7C161.9,46.1 157.9,52.3 154.7,58.4C153.2,61.3 152.2,64.6 149.9,66.9C148,68.7 146.6,70.6 145.1,72.7C143.5,74.8 141.7,75.9 140.1,78.1C137.9,81.1 134.4,83.6 132.8,86.8C131.7,89 129.2,92.9 127.3,94.6C125,96.6 123.1,99.1 120.8,101.4C119.8,102.4 119.1,103.1 118.1,104.1C116.3,105.9 115.1,108 113.2,109.9C111.8,111.2 110,114.5 108.8,116.2C108.1,117.3 107.4,118.3 106.7,119.4C106,120.6 105.6,121.7 104.8,122.8L96.4,135.4C95.7,136.5 94.9,137.4 94.2,138.6C90.6,145.2 89.3,148.7 85,155.7C81.6,161.3 79.2,167.5 75.8,173.2L66.4,190.2C65.8,191.4 65.6,192.7 64.8,193.9C63.4,196.2 62.4,198.5 61.2,200.9L53.9,215C53.4,216 52.6,217.4 51.9,218.4C50.4,220.7 49.6,223 48.3,225.5C47.6,226.8 47.1,227.7 46.4,228.9C42.7,236.4 41.3,238.9 38,246.8L36.5,250.7C35.4,253.3 33.8,255.1 33,257.9C32.3,260.4 30.9,262.7 30,265.3C29.7,266.1 29.5,266.6 29.3,267.2C29,268 29,268.5 28.8,269.4L25.1,281.7C24.6,283.2 24,283.8 23.5,285.4C21.8,291.5 19.5,297.9 18.5,304C18.4,304.7 18.1,305.4 17.9,306.1C17.5,307.6 17.8,309.2 17.3,310.8C17.1,311.4 16.8,311.9 16.6,312.8L15.9,317.4C15.8,319.8 15.9,322.7 15.3,324.8C15,326.1 14.8,328.2 14.7,329.5C14.5,332.5 13.4,335.2 13,338.1C12.7,340.6 13.1,340.6 12.4,342.8C11.9,344.4 12.3,345.9 11.8,347.5C11.1,349.5 11.2,349.6 11.2,352.3C11.2,356.8 8,367 7.9,370C7.8,373.6 7.6,372.3 7.4,374.8C7.1,377.1 7.3,377.4 6.7,379.5C5.9,382.4 6.5,385.7 6.3,388.6L5.6,393.2C5.3,394.8 5.5,397.1 5.3,398.3C4.4,403.6 4.6,402.1 4.6,408C4.6,409.4 4.5,411.7 4.2,412.9C3.4,416 3.7,414 3.4,417.5C3.3,419.1 2.6,420.2 2.5,421.9C2.4,425 2.7,426.3 1.9,429.3C1.4,431.2 1.3,434 0.7,436.1C0.2,437.8 0.5,439.2 0.4,441.1C0.5,443 0,443.7 0,445.7L1,460.1C1.4,461.5 1.7,462.8 1.8,464.3C1.9,466.6 2.3,466.6 2.6,468.2C3.7,473.3 3.4,474.7 5.3,480.3C6.7,484.4 7.2,486.9 9.1,491C10.1,493.2 11.2,495.5 11.9,497.9C12.3,499.3 12.5,500.3 13.2,501.6C13.8,502.8 14.3,503.4 14.9,504.7C18.3,511.5 18.2,509.8 21.7,514.7C23.4,517 24.9,519.5 27,521.6C30.3,524.9 33.3,527.9 36.8,531.1C37.8,532 38.9,532.1 40.2,532.8C41.4,533.5 42,534 43,534.7C45.9,536.7 49.3,538.3 52.2,540.3C56,542.8 58.5,542.9 62,544.8C64.1,546 66.2,547.3 68.5,548.1C70.1,548.7 70.7,548.6 72.1,549.6C74,551 76.1,552.2 78.4,553.1C79.6,553.6 80.8,553.8 82,554.2L89,556.9C92.9,558.2 96.6,558.8 100.3,560.4C101.9,561 102.8,560.8 104.3,561.1C109.5,562.3 113.9,565.4 119.3,565.3C122.7,565.3 133.7,568.1 135.9,568.3C136.8,568.4 137.6,568.2 138.5,568.4C139,568.5 139.7,568.8 140.3,568.9C141.9,569.3 142.9,569 144.7,569.2C146.1,569.3 147,570 148.6,570.1C150.2,570.2 151.8,570.3 153.1,570.4C156.9,570.7 155.1,570.8 157.3,571.2C160.3,571.8 163.9,570.9 166.9,571.4C168.6,571.7 169.1,572.2 170.8,572.2C174,572.3 177.4,572.2 180.6,572.2C186.8,572.2 187.1,573.1 189.2,573.1L223.6,573.1C225.5,573.1 226.2,572.2 228.9,572.2C231,572.2 232.3,571.7 234.3,571.4C236.3,571.1 238.5,571.5 240.4,571.3C241.4,571.2 241.8,570.8 242.6,570.6C247,569.5 252.8,571 256.8,569.6C259.6,568.6 265.2,569.2 268.6,569.2L305,569.2C307.9,569.2 308.2,568.5 310.3,568.3C314.9,568 328.7,568.3 334.6,568.3C337.1,568.3 347,565.9 349.4,565.1C351,564.6 352.9,564.5 354.3,563.8C357.9,561.7 365.7,559.6 367.2,558.6C368.2,558 368.3,558 369.5,557.6C370.2,557.3 370.7,557 371.5,556.7C381,551.9 383.2,542.7 385.6,542.1C386.2,542 386.4,542 387,542C387.2,542.9 387.5,543.3 387.8,544.1C389.6,548.7 390.5,552.8 395,555.5C396.2,556.2 397.5,556.8 398.6,557.5C400,558.4 400.2,559 401.8,559.7L408.5,563.6C409.3,564.1 409.4,564.3 410.2,564.8C412.9,566.5 415.6,568.2 418.1,570.3C419.2,571.2 420.1,571.7 421.2,572.5C424.4,574.6 431.2,579.5 434.4,580.9L442.1,584.2C446.1,585.8 446.8,585.5 450.7,586.2C455.2,587 455.6,587.5 460.4,587.5C462.3,587.5 463.2,588 465.1,588.1C470,588.5 475.2,590.384 480.2,590.384C485.1,590.384 489.282,590.059 495.241,590.559C500.536,591.003 500.471,590.606 503.771,590.706C505.671,590.806 523.1,590.8 523.1,590.8L536.3,589.5C540.3,588.8 543.7,587.6 547.5,586.5C549.5,585.9 551.3,585.5 553.3,585.2C555.8,584.8 556.6,584.1 558.9,583.6C562.6,582.8 566.2,581.4 569.4,579.9L574.3,577.7C577.6,576.4 580.2,574.2 583.4,572.6C587.9,570.3 586.9,570.5 589.9,568.4C590.7,567.9 591.4,567.6 592.2,567.1C596.8,563.7 599.8,558.2 599.8,551.9C599.8,550.5 596.9,542.2 596.1,540.7C593.6,535.7 592.1,530.3 589.6,525.3C588,522 586.1,519.4 584.2,516.2C583.2,514.6 582.3,513.6 581.2,512.1C576.7,505.9 576.3,499.9 571,493C569.9,491.6 569.1,490.2 567.9,488.7L561,481.1C557.3,477.5 551.8,467.8 544.7,461L537.1,454.1C536.4,453.5 535.5,453.1 534.8,452.5L529,448C526,445.9 523.2,444.1 520.3,442.2C517.4,440.2 513.9,438.9 510.9,437.1C506.8,434.6 502.9,433.7 500,429.7C499.4,428.8 499,428.5 498.4,427.8C493.4,421.8 497.8,421.3 501.9,416.1C506.7,410 508.7,408.3 511.8,400.8L513.4,396.2C514.3,392.6 514.9,384.1 513.6,380.5C513.3,379.7 512.2,377.2 512.2,376.3C512.2,374.5 517.2,368.4 518.8,366.9C520.6,365.2 521.7,363 523.3,361C527.4,355.9 527.9,352.4 527.9,345.8C527.9,343.4 525.8,338.7 524.4,336.9C522.3,334.2 520.7,335.6 528.2,325.7L533.3,320.2C535.2,318.5 537.2,317 538.6,314.8C542.7,308.6 545.1,306.2 545.1,297.6C545.1,294.9 539.7,284.3 538.4,282.1C537.4,280.4 535.8,278.8 534.5,277.4C533.1,275.8 531.2,275.2 530.5,273.1C530.1,271.8 529.8,270.3 529.3,268.9C527.9,265 525.8,261.3 523.2,258.1C522.4,257 521.8,256 520.9,255C519.4,253.4 517.3,250.3 515.7,249C508.2,242.8 510,243 514.1,238.9C515.5,237.5 516.4,236.7 517.6,235C524.8,225.2 521.3,230.7 526.2,221.1C527.2,219.1 527.6,217.6 527.9,215.4C528.7,208.9 529.9,205.5 528.8,198.6C528.6,197.4 528.8,196.4 528.7,195.2C528.5,193 527.8,191.2 527.8,188.7C527.8,184.5 528.7,181.5 528.7,177.4C528.7,176.4 528.4,166.7 528.7,166.4C530.5,165.5 531.6,166.7 533.1,164.9C533.8,164 534.3,162.1 534.3,160.5C534.3,155.8 529.1,150.9 526.1,148.6L511.3,138.9C509.3,137.9 506.3,137.1 505.4,135.1C503.3,130.9 501.3,126.7 498.1,123.2C497.3,122.3 496.8,121.5 496.1,120.5C494.6,118.4 488.7,112.2 486.7,110.3C484.4,108.1 472.5,99.9 469.7,98C468.7,97.3 467.7,96.6 466.7,96C465.9,95.5 464,94.9 463.5,94.4C462.5,93.5 462.9,91.7 462.6,90.3C460.9,83.1 456.6,77.3 452.9,71C452.3,69.9 451.8,69.1 451.2,68L443.8,55.9C442.2,52.7 439.8,50 437.7,47.2C437,46.2 436.5,45.4 435.8,44.4C433.1,40.4 430.6,37.1 427.2,33.7C423.9,30.4 420.1,27.6 415.9,25.5L396,15.6C391.6,13.7 383.5,13.9 378.1,13.9C375.1,13.9 372.6,13.3 369.2,13.3L357.5,13.3ZM208.4,279.6C210.9,281.1 210.9,284.6 208.5,285.2C207.5,285.4 205,285.1 203.8,285C202.2,285 200.7,285.3 199.1,285.3C193,285.4 188.2,286.6 182.6,287.7C176.1,289 169.4,293.5 165.8,299.3C164.8,301 163.3,304.2 160.5,303.2C154.9,301.2 164.4,291.3 166.9,289.4C167.8,288.7 168.7,287.9 169.5,287.3C173.9,283.8 181.3,281.9 187,281C188.4,280.8 189,280.4 190.9,280.2C193.1,279.9 207.1,278.8 208.4,279.6ZM446.6,247.3C450.9,247.3 455.7,247.5 459.7,246.5C461.6,246 465.2,244.4 465.9,247.4C466.3,249.2 465.8,250.1 464.7,250.7C463.9,251.2 462.6,251.9 461.6,252.1C453.2,253.7 447.6,253 439,252.5C439.1,252.9 442,255.2 443.4,257L447.6,262.3C450.5,266.1 456.1,270.6 460.5,277.5C461.2,278.6 461.1,278.5 461.6,279.7C465.2,287.1 459.7,286.5 458.3,285.3C457.1,284.3 455.2,279.8 453.5,277.6C453,276.9 452.7,276.8 452.1,276.1C450.1,273.6 452,275.3 449.3,272.7L444.6,267.9C439.5,262.4 439.3,259.8 432.4,255C429.2,252.8 431.1,253.8 428.6,252.6C427.6,252.1 424.7,249.6 420.9,247.8C417.9,246.3 415.2,245.7 412.5,243.5C409.2,240.8 412.2,236.8 416.7,239.3C418.9,240.5 433,245.1 435.4,245.7C436.3,245.9 437.2,245.9 438,246.1C441.1,246.6 442.9,247.3 446.6,247.3Z" style="fill:rgb(0,1,0);"/>
            <g transform="matrix(1.08386,0,0,1.08386,-25.2572,-25.1697)">
                <path d="M32.115,293.876C41.513,265.697 67.18,200.422 105.706,141.814C133.593,99.39 166.522,51.932 172.546,46.558C189.278,31.634 224.915,24.445 257.259,27.602C279.707,29.793 291.327,35.528 312.293,40.717C333.976,46.084 349.951,25.894 370.099,30.997C403.52,39.461 430.569,54.397 439.96,79.35C449.269,104.087 466.284,114.149 480.711,127.666C501.354,147.005 527.105,168.523 519.874,177.885C509.756,190.984 484.261,170.441 475.391,167.152C439.431,153.818 400.391,158.876 341.943,150.083C281.533,140.995 211.598,160.945 210.563,175.428C209.529,189.911 197.632,213.704 220.908,229.738C244.184,245.773 239.529,256.118 282.46,255.6C325.391,255.083 336.253,253.531 384.874,256.635C433.494,259.738 461.286,282.749 491.943,254.566C498.734,248.323 505.081,244.118 514.908,260.669C519.337,268.129 518.446,268.956 511.539,274.539C502.765,281.631 501.37,298.888 492.977,305.256C477.977,316.635 479.529,324.393 405.563,322.325C331.598,320.256 268.467,313.184 239.501,300.253C210.536,287.322 193.407,281.606 184.639,293.283C167.915,315.559 183.667,319.196 199.701,336.019C215.736,352.842 238.751,355.858 262.288,368.876C301.564,390.6 342.379,390.753 377.096,390.786C413.785,390.822 425.603,393.333 455.086,388.678C464.735,387.154 479.325,386.952 486.033,382.728C490.534,379.894 492.632,371.512 495.088,371.347C503.759,370.764 503.519,384.448 496.516,396.159C492.994,402.049 486.778,411.413 482.457,414.24C477.616,417.408 470.469,442.603 448.052,464.593C406.392,505.458 386.284,529.651 378.917,534.813C362.241,546.495 386.425,569.864 303.15,568.313C219.874,566.761 241.986,573.574 187.676,571.505C133.365,569.437 128.193,588.833 87.331,553.661C46.469,518.488 13.495,510.6 17.115,468.704C20.736,426.807 14.277,347.362 32.115,293.876Z" style="fill:rgb(22,22,22);"/>
            </g>
            <g id="v">
                <g transform="matrix(1.08386,0,0,1.08386,-25.2572,-25.1697)">
                    <path d="M532.407,460.244C536.208,463.692 539.109,468.045 542.01,472.278C545.751,477.735 550.823,486.239 554.853,492.989C558.751,499.515 563.223,507.433 566.193,512.774C568.439,516.815 571.361,521.105 572.672,525.039C573.876,528.652 575.198,532.849 574.06,536.378C572.923,539.907 569.208,543.579 565.845,546.213C561.661,549.491 554.981,553.574 548.953,556.048C542.608,558.651 534.702,560.271 527.779,561.833C521.055,563.35 514.283,564.846 507.415,565.42C498.409,566.172 483.213,566.596 473.744,566.346C465.991,566.14 457.777,565.054 450.603,563.916C443.894,562.852 436.962,562.159 430.702,559.519C423.799,556.607 416.231,551 409.181,546.444C401.93,541.758 391.729,535.838 387.197,531.403C384.175,528.445 382.805,523.982 381.991,519.832C380.968,514.626 381.952,506.025 381.065,500.162C380.261,494.851 379.398,489.285 376.668,484.658C373.448,479.201 365.676,472.393 361.742,467.418C358.577,463.415 353.971,458.779 353.064,454.806C352.198,451.01 354.202,446.36 356.304,443.583C358.406,440.806 362.591,438.916 365.676,438.145C368.644,437.403 372.156,438.106 374.817,438.955C377.376,439.771 379.676,442.58 381.643,443.236C383.221,443.761 385.159,443.685 386.619,442.889C389.588,441.269 395.291,436.786 399.462,433.517C404.283,429.737 410.082,424.519 415.545,420.21C421.022,415.891 426.865,411.031 432.322,407.599C437.359,404.43 443.584,400.83 448.289,399.615C452.254,398.591 456.86,398.544 460.554,400.309C465.356,402.604 473.147,409.758 477.1,413.384C479.866,415.921 481.728,419.748 484.274,422.062C486.648,424.221 489.858,425.274 492.373,427.268C496.761,430.75 506.894,435.847 515.584,442.97C522.78,448.868 528.659,456.846 532.407,460.244ZM415.552,462.719C413.436,463.995 409.429,462.719 408.465,464.889C407.501,467.058 408.994,472.177 409.767,475.736C410.683,479.955 412.25,486.366 413.961,490.199C415.385,493.387 417.987,496.876 420.036,498.732C421.701,500.241 424.332,502.499 426.255,501.336C428.328,500.082 430.17,494.433 432.474,491.212C435.68,486.728 440.67,478.942 445.491,474.434C450.101,470.124 457.495,467.444 461.4,464.166C464.474,461.585 467.451,457.826 468.921,454.765C470.229,452.042 472.242,448.044 470.223,445.798C468.077,443.411 460.677,440.88 456.049,440.446C451.446,440.015 446.681,441.323 442.454,443.194C438.042,445.147 433.813,449.09 429.581,452.161C425.098,455.415 419.072,460.598 415.552,462.719Z" style="fill:rgb(75,149,65);"/>
                </g>
                <g id="Outline1" serif:id="Outline" transform="matrix(1.08386,0,0,1.08386,-25.2572,-25.1697)">
                    <path d="M381.099,525.226C380.822,524.488 379.162,518.767 378.331,512.678C377.409,506.127 379.9,500.222 377.87,493.303C377.409,491.734 373.441,486.291 372.242,484.722C371.135,483.338 370.858,481.954 369.751,480.294C366.337,474.85 364.492,474.02 359.786,469.222C358.587,468.023 357.572,467.192 356.465,465.716C355.635,464.517 354.712,462.579 353.882,461.195C352.036,458.058 350.376,454.644 351.206,450.124C352.129,445.234 352.036,444.495 355.911,440.805C361.263,435.638 369.105,432.594 376.671,435.085C378.147,435.546 380.546,436.469 381.468,437.391C383.314,439.606 383.314,439.329 384.328,441.451C386.358,441.451 385.712,440.805 386.727,439.421C388.296,437.391 393.001,435.269 395.492,433.885C397.338,432.87 399.552,431.21 401.028,429.918C401.858,429.18 402.689,428.626 403.611,427.888L408.594,423.275C410.9,420.599 413.391,419.123 415.882,416.355C417.543,414.51 419.204,413.68 421.049,412.019C423.356,409.897 426.862,408.052 429.537,406.299C430.737,405.468 431.106,404.915 432.028,404.177C433.689,402.793 436.457,402.239 438.671,401.224C441.07,400.117 442.546,399.01 445.038,397.995C449.835,396.057 456.663,395.596 461.553,396.888C463.213,397.349 466.074,399.563 467.457,400.578L475.115,407.129C476.256,408.21 478.487,409.98 481.104,413.558C480.971,414.659 481.521,415.978 483.142,417.924C483.696,418.57 484.065,418.846 484.618,419.677C487.294,423.367 490.892,424.198 494.675,426.504C497.443,428.165 500.672,429.364 503.348,431.21C506.023,432.963 508.607,434.623 511.375,436.561L516.726,440.713C517.372,441.266 518.202,441.635 518.848,442.189L525.86,448.555C532.411,454.829 537.485,463.778 540.899,467.1L547.265,474.112C548.372,475.496 549.11,476.788 550.125,478.079C555.015,484.445 555.384,489.981 559.536,495.701C560.551,497.085 561.381,498.008 562.304,499.484C564.057,502.437 565.81,504.836 567.286,507.88C569.593,512.493 570.977,517.476 573.283,522.089C574.021,523.473 576.697,531.13 576.697,532.422C576.697,538.235 573.929,543.309 569.685,546.446C568.947,546.907 568.301,547.184 567.563,547.646C564.795,549.583 565.718,549.399 561.566,551.521C558.613,552.997 556.215,555.027 553.17,556.226L548.649,558.256C545.697,559.64 542.375,560.931 538.961,561.67C536.839,562.131 536.101,562.777 533.795,563.146C531.949,563.423 530.289,563.792 528.443,564.345C524.937,565.36 521.8,566.467 518.11,567.113L505.931,568.313C505.931,568.313 489.851,568.318 488.098,568.226C485.053,568.133 485.113,568.499 480.228,568.09C474.73,567.629 470.871,567.929 466.35,567.929C461.737,567.929 456.939,566.19 452.419,565.821C450.666,565.729 449.835,565.268 448.082,565.268C443.654,565.268 443.285,564.807 439.133,564.068C435.534,563.423 434.889,563.699 431.198,562.223L424.094,559.178C421.141,557.887 414.868,553.366 411.915,551.428C410.9,550.69 410.07,550.229 409.055,549.399C406.748,547.461 404.257,545.893 401.766,544.324C401.028,543.863 400.936,543.678 400.198,543.217L394.016,539.619C392.54,538.973 392.355,538.419 391.064,537.589C390.049,536.943 388.849,536.389 387.742,535.744C383.59,533.253 382.76,529.47 381.099,525.226ZM466.535,448.647C468.017,445.786 453.673,442.988 452.05,443.112C447.265,443.476 444.299,446.064 441.07,448.463C439.963,449.201 438.948,450.031 438.026,450.862L431.844,455.567C429.63,457.136 427.6,458.612 425.478,460.18C422.618,462.302 418.374,465.07 414.775,465.901C409.055,467.284 410.347,465.439 412.1,470.975C413.207,474.85 412.192,482.6 414.129,485.183C414.263,485.142 416.792,490.323 416.713,490.442C417.082,490.996 418.004,492.195 418.558,492.657L422.802,496.901C424.186,498.285 424.832,497.824 425.755,497.824C426.954,492.749 426.493,494.133 428.984,489.889C431.936,484.907 434.427,481.124 438.487,476.972C444.761,470.698 444.023,472.913 448.636,470.514L452.234,468.392C454.356,467.192 455.648,464.424 457.401,462.395C459.8,459.534 464.625,452.334 466.535,448.647ZM468.196,458.981C468.657,459.258 468.934,459.258 470.041,458.15L471.886,456.674C473.731,455.198 475.115,453.168 477.145,452.061C478.344,451.415 478.068,451.507 478.99,450.677C479.728,449.939 480.097,449.662 480.836,449.201C482.22,448.371 481.666,448.463 482.589,447.725C483.88,446.71 485.264,446.064 486.464,445.049C487.479,444.126 489.047,442.373 491.169,443.665C492.922,444.772 492.461,446.802 491.169,448.094C489.97,449.293 485.541,452.061 483.788,453.537C481.481,455.567 478.806,457.228 476.591,459.442C475.023,461.195 472.993,462.671 471.056,463.778C468.934,465.07 470.963,464.886 465.059,467.561C462.291,468.761 459.523,470.79 456.755,472.359C455.463,473.097 453.71,474.112 452.603,474.573C451.865,474.942 451.035,475.311 450.389,475.68C448.82,476.511 447.252,476.788 445.776,477.71C445.13,478.079 445.407,477.987 444.945,478.448C442.27,481.216 440.055,482.877 438.026,486.291C437.103,487.859 436.365,488.874 435.35,490.166C434.335,491.55 433.689,493.026 432.859,494.225C431.844,495.794 431.106,497.085 431.752,499.484C432.767,503.175 434.52,505.389 436.549,507.788C437.103,508.434 437.472,509.08 438.026,509.633C439.779,511.386 440.886,512.955 443.1,514.339C445.499,515.815 448.082,518.214 451.773,518.767C453.71,519.044 455.556,519.598 457.309,519.69C459.154,519.782 460.722,519.044 462.937,518.952C463.398,518.029 463.951,516.922 464.413,515.815C464.966,514.523 465.612,513.601 465.981,512.678C466.258,512.032 466.166,511.571 466.443,510.925C466.719,510.371 466.996,510.279 467.365,509.449C468.657,506.865 469.764,505.85 471.148,503.913C471.702,503.175 472.255,501.975 472.993,501.145C475.484,498.285 475.853,496.163 477.606,494.225C479.359,492.195 481.574,489.797 483.603,488.413L490.431,483.8C490.985,483.338 491.354,482.969 491.723,482.692C494.491,480.939 497.258,483.984 494.675,486.936C493.199,488.597 490.062,490.166 488.032,491.734C486.279,493.118 482.958,495.609 481.85,497.362C480.743,499.023 479.821,501.422 478.252,502.99L472.347,511.294C471.056,513.693 470.133,516.737 468.841,519.229C467.826,521.074 467.365,522.735 468.011,524.949C468.38,526.241 468.565,527.348 469.118,528.455L471.056,531.407C477.791,531.869 475.208,532.33 478.621,532.699C480.097,532.883 481.574,532.791 483.05,532.791C486.74,532.883 492.645,534.267 495.229,530.946C495.967,530.023 496.059,529.193 496.705,528.27C500.764,522.365 501.41,523.473 502.979,521.72L507.038,517.383C508.884,515.354 511.559,512.862 513.035,510.833C514.05,509.449 514.696,508.526 515.988,507.511L523.369,499.946C525.03,499.669 526.137,499.946 526.598,501.33C527.152,502.99 526.69,504.19 525.768,504.928C524.753,505.758 524.384,506.312 523.461,507.234C522.631,508.157 521.985,508.895 521.155,509.818C519.125,512.032 518.848,511.478 516.726,514.708C516.265,515.354 508.238,523.934 506.3,525.41C505.654,525.964 505.654,526.056 505.009,526.61C503.717,527.624 503.348,527.624 502.517,529.008C500.488,532.33 500.303,531.869 502.056,535.928C503.532,539.434 501.687,539.803 505.747,541.741C507.407,542.571 512.205,542.756 514.235,542.387C517.003,541.833 519.125,540.726 520.878,539.526C521.8,538.881 522.262,537.958 523,537.035C523.646,536.205 524.753,535.559 525.583,534.729C526.414,533.898 527.059,533.068 527.797,532.238C528.259,531.776 528.628,531.5 528.997,531.038L532.872,525.595C533.61,524.672 533.426,525.318 534.071,524.303C535.455,522.365 537.393,521.166 538.685,519.321C540.253,517.107 543.482,511.94 546.619,513.139C548.095,513.693 548.188,514.892 548.188,516.83C547.357,517.199 547.45,517.291 546.711,518.029C544.128,520.52 542.191,523.104 539.792,525.595C539.423,525.964 539.423,525.871 539.146,526.333L537.116,528.916C536.655,529.562 536.47,529.747 535.917,530.485C535.271,531.407 535.086,531.407 534.533,532.145L531.396,536.389C531.027,536.666 530.934,536.666 530.565,536.943C526.229,539.895 525.952,543.863 519.402,546.262C516.357,547.369 512.943,548.015 509.437,547.553C502.702,546.631 507.869,548.107 502.333,545.893C500.949,545.339 498.642,542.848 498.181,541.279C497.812,540.08 497.166,537.312 496.705,536.759C496.151,536.943 495.598,537.312 494.86,537.589C491.999,538.604 489.508,539.065 486.279,538.788C481.758,538.419 476.684,538.05 472.071,537.128C471.148,536.943 470.779,536.574 469.764,536.205C467.457,535.375 466.996,534.452 465.981,533.345C462.568,529.654 464.044,527.809 462.106,524.395C460.63,524.488 459.062,525.502 455.648,524.949C451.957,524.395 447.436,523.842 444.299,521.72C442.823,520.705 439.04,518.49 437.841,517.291C435.719,515.169 433.781,512.862 431.475,511.017L424.278,505.297C422.433,503.636 420.219,502.437 418.558,500.407C417.912,499.669 417.451,499.3 416.621,498.562C413.022,495.425 409.332,490.073 408.317,485.183C407.486,481.308 407.856,476.142 406.841,472.174C406.564,471.067 406.103,470.883 405.826,469.683C405.549,468.853 405.272,467.377 404.995,466.731C403.335,466.362 401.951,466.546 400.382,466.362C399.183,466.177 399.275,465.901 398.537,465.716C395.677,464.886 393.832,465.531 389.034,462.025C381.93,456.859 384.236,450.585 382.391,447.079C381.653,445.787 381.561,446.064 380.638,445.049C376.947,440.805 380.269,442.927 374.733,440.62C372.796,439.79 373.072,439.698 370.581,439.698C365.045,439.79 363.938,441.635 359.786,444.403C359.417,444.588 357.388,446.525 357.111,446.894C355.727,449.016 355.635,452.43 356.557,455.106C357.757,458.519 359.971,461.841 362.462,464.701C365.23,467.838 367.721,469.683 370.304,472.451C371.688,473.927 373.626,476.418 374.549,478.356C375.102,479.463 375.563,480.755 376.302,481.77C377.501,483.246 379.992,486.383 380.73,487.767C381.561,489.52 382.852,491.088 383.037,493.21C383.314,496.347 383.775,495.701 383.775,500.315C383.775,509.541 382.299,517.291 386.45,526.056C387.096,527.44 387.373,528.916 388.019,529.931C388.757,531.13 388.388,531.13 389.587,531.869L392.448,533.345C393.186,533.714 394.201,534.729 395.123,535.282L409.885,545.062C410.439,545.616 410.808,545.616 411.362,546.077C412.1,546.631 411.731,546.631 412.469,547.184C413.853,548.107 415.513,548.753 416.621,549.86L424.832,555.027C427.323,556.503 431.844,558.071 434.612,558.902C437.38,559.732 439.04,559.917 442.27,560.286C444.207,560.47 443.377,560.931 445.776,561.024C447.16,561.116 449.005,561.024 450.204,561.301C451.773,561.762 461.184,562.315 462.198,562.777C464.69,563.792 471.609,563.146 474.746,563.238C474.746,563.238 492.171,564.184 497.257,563.835C501.887,563.517 506.392,564.622 507.869,564.161C511.098,563.238 511.744,563.884 514.881,563.515C516.08,563.423 520.14,562.869 521.155,562.5C525.03,561.024 528.905,560.101 532.78,559.086C533.979,558.809 534.994,558.809 536.101,558.533C538.223,557.979 542.652,555.949 545.235,555.58C547.819,555.211 555.2,550.783 555.2,550.783C556.584,550.229 557.598,548.66 559.536,547.83L563.226,546.077C564.518,545.247 563.872,545.154 564.979,544.232C567.286,542.294 567.378,543.863 570.054,540.08C570.977,538.696 571.253,539.25 571.622,537.866C572.822,532.976 570.7,532.053 570.146,528.639C569.593,525.41 570.054,526.056 568.578,522.827L561.566,507.419C560.09,505.112 558.982,502.437 557.598,500.222C556.215,498.008 556.03,499.853 553.078,493.487C551.878,490.904 547.634,482.139 545.973,480.109C545.327,479.371 545.697,480.017 545.051,479.186C543.944,477.71 544.313,477.802 542.283,475.404C542.283,475.404 538.961,471.067 537.393,469.96C535.179,468.392 532.78,463.686 530.934,461.656C528.997,459.534 527.521,456.766 525.399,454.644C523.277,452.522 520.97,450.769 518.94,448.555C517.741,447.171 515.988,445.879 514.327,444.772L502.056,436.007C498.735,433.608 494.86,432.409 491.446,430.01C490.154,429.088 489.232,429.088 487.294,427.888C486.002,427.058 484.342,426.596 483.234,425.397L481.297,423.183C479.913,421.153 478.437,419.677 477.791,418.477C476.776,416.54 476.222,414.787 474.285,413.495C471.24,411.465 467.642,408.328 465.059,405.745C464.228,404.915 463.675,404.822 462.752,403.992C460.815,402.239 459.062,401.593 456.478,401.593C446.791,401.685 447.252,403.807 440.055,406.483C438.21,407.221 435.903,407.775 434.427,409.066C431.659,411.465 429.722,412.388 426.954,414.418C425.016,415.802 421.326,418.201 419.942,419.954C418.835,421.43 417.266,422.814 415.698,423.921C414.591,424.751 414.314,424.936 413.391,425.951C411.638,427.888 412.469,427.611 410.254,429.088C409.147,429.826 408.225,431.394 407.117,432.224C406.103,432.963 405.457,433.055 404.719,434.07L410.808,438.037C411.638,438.683 411.269,438.037 412.007,438.96L414.775,442.281C415.606,443.481 416.621,445.326 416.621,446.894C416.621,450.216 414.498,452.799 412.376,455.106L410.162,457.043C409.701,457.412 408.132,458.612 407.763,458.796C405.18,459.811 402.966,457.136 404.442,454.921C405.457,453.445 413.022,449.478 410.992,446.064C410.347,444.865 409.978,444.588 409.239,443.665C408.317,442.466 407.21,441.728 405.918,440.989L403.335,439.513C401.858,438.867 400.659,437.483 398.906,438.129L393.647,441.082C391.064,442.835 390.695,442.004 389.68,445.234C389.311,446.248 388.757,446.894 388.48,448.186C388.203,449.293 388.203,450.862 388.388,452.061C388.48,453.076 389.034,454.091 389.403,454.921C390.233,457.043 391.156,458.427 393.462,459.073C394.754,459.442 395.123,459.903 396.415,460.272C400.751,461.564 409.793,462.671 414.314,460.365C415.329,459.903 416.159,459.627 417.174,459.165C420.68,457.412 423.632,454.552 426.954,452.522L429.353,450.769C432.951,448.463 436.273,444.957 438.395,443.481L443.285,440.159C444.484,439.421 444.945,439.513 446.237,438.96C451.127,436.653 462.383,438.867 467.181,440.897C468.472,441.359 474.193,444.772 474.562,445.879C474.838,446.802 474.469,448.371 473.731,448.924C472.347,449.939 471.978,448.555 471.609,450.862C471.332,452.338 469.487,456.674 468.38,457.781C467.919,458.335 467.457,458.058 468.196,458.981Z" style="fill:rgb(0,1,0);"/>
                </g>
            </g>
        </g>
    </g>
</svg>
